<svg width="42" height="42" viewBox="0 0 42 42" fill="none" xmlns="http://www.w3.org/2000/svg">
<path d="M39.2477 34.6623L36.7662 25.9219V6.89062C36.7662 6.16465 36.1797 5.57812 35.4537 5.57812H6.57874C5.85277 5.57812 5.26624 6.16465 5.26624 6.89062V25.9219L2.7848 34.6623C2.47718 35.5195 3.10882 36.4219 4.01937 36.4219H38.0131C38.9237 36.4219 39.5553 35.5195 39.2477 34.6623ZM8.21937 8.53125H33.8131V24.7324H8.21937V8.53125ZM17.5832 33.4688L17.9155 31.9512H24.0801L24.4123 33.4688H17.5832ZM26.7707 33.4688L25.9873 29.9127C25.9545 29.7609 25.8192 29.6543 25.6674 29.6543H16.3323C16.1764 29.6543 16.0452 29.7609 16.0123 29.9127L15.2289 33.4688H6.1932L7.92816 27.3574H34.1043L35.8393 33.4688H26.7707Z" fill="black"/>
</svg>
