<svg width="36" height="36" viewBox="0 0 36 36" fill="none" xmlns="http://www.w3.org/2000/svg">
<path d="M18 22.5C19.1935 22.5 20.3381 22.0259 21.182 21.182C22.0259 20.3381 22.5 19.1935 22.5 18C22.5 16.8065 22.0259 15.6619 21.182 14.818C20.3381 13.9741 19.1935 13.5 18 13.5C16.8065 13.5 15.6619 13.9741 14.818 14.818C13.9741 15.6619 13.5 16.8065 13.5 18C13.5 19.1935 13.9741 20.3381 14.818 21.182C15.6619 22.0259 16.8065 22.5 18 22.5V22.5Z" fill="black"/>
<path d="M0 9C0 8.40326 0.237053 7.83097 0.65901 7.40901C1.08097 6.98705 1.65326 6.75 2.25 6.75H33.75C34.3467 6.75 34.919 6.98705 35.341 7.40901C35.7629 7.83097 36 8.40326 36 9V27C36 27.5967 35.7629 28.169 35.341 28.591C34.919 29.0129 34.3467 29.25 33.75 29.25H2.25C1.65326 29.25 1.08097 29.0129 0.65901 28.591C0.237053 28.169 0 27.5967 0 27V9ZM6.75 9C6.75 10.1935 6.27589 11.3381 5.43198 12.182C4.58807 13.0259 3.44347 13.5 2.25 13.5V22.5C3.44347 22.5 4.58807 22.9741 5.43198 23.818C6.27589 24.6619 6.75 25.8065 6.75 27H29.25C29.25 25.8065 29.7241 24.6619 30.568 23.818C31.4119 22.9741 32.5565 22.5 33.75 22.5V13.5C32.5565 13.5 31.4119 13.0259 30.568 12.182C29.7241 11.3381 29.25 10.1935 29.25 9H6.75Z" fill="black"/>
</svg>
