<svg width="108" height="108" viewBox="0 0 108 108" fill="none" xmlns="http://www.w3.org/2000/svg">
<path d="M54 9C41.5935 9 31.5 19.0935 31.5 31.5V45H27C24.6131 45 22.3239 45.9482 20.636 47.636C18.9482 49.3239 18 51.6131 18 54V90C18 92.3869 18.9482 94.6761 20.636 96.364C22.3239 98.0518 24.6131 99 27 99H81C83.3869 99 85.6761 98.0518 87.364 96.364C89.0518 94.6761 90 92.3869 90 90V54C90 51.6131 89.0518 49.3239 87.364 47.636C85.6761 45.9482 83.3869 45 81 45H76.5V31.5C76.5 19.0935 66.4065 9 54 9ZM40.5 31.5C40.5 24.057 46.557 18 54 18C61.443 18 67.5 24.057 67.5 31.5V45H40.5V31.5ZM58.5 79.7535V90H49.5V79.7535C47.9267 78.8526 46.6635 77.496 45.8767 75.8626C45.09 74.2292 44.8168 72.3958 45.0931 70.604C45.3694 68.8122 46.1822 67.1462 47.4244 65.8257C48.6667 64.5052 50.2799 63.5922 52.0515 63.207C53.3674 62.916 54.7318 62.9242 56.0441 63.2308C57.3564 63.5374 58.5832 64.1346 59.6339 64.9785C60.6847 65.8224 61.5326 66.8914 62.1152 68.1066C62.6978 69.3218 63.0001 70.6523 63 72C62.9974 73.5738 62.5801 75.1192 61.7901 76.4804C61.0001 77.8416 59.8653 78.9705 58.5 79.7535V79.7535Z" fill="black"/>
</svg>
