<svg width="19" height="19" viewBox="0 0 19 19" fill="none" xmlns="http://www.w3.org/2000/svg">
<path d="M3.49916 16.2917C3.38932 16.2915 3.28073 16.2685 3.18028 16.224C3.07983 16.1796 2.98973 16.1148 2.9157 16.0336C2.84033 15.9532 2.78282 15.8577 2.74694 15.7535C2.71106 15.6492 2.69761 15.5386 2.70749 15.4288L2.90145 13.296L11.8615 4.33913L14.6617 7.13846L5.70395 16.0946L3.5712 16.2885C3.54725 16.2908 3.52321 16.2918 3.49916 16.2917ZM15.2206 6.57875L12.4212 3.77942L14.1004 2.10029C14.1739 2.02669 14.2612 1.96829 14.3573 1.92845C14.4534 1.88861 14.5564 1.86811 14.6605 1.86811C14.7645 1.86811 14.8675 1.88861 14.9636 1.92845C15.0597 1.96829 15.147 2.02669 15.2206 2.10029L16.8997 3.77942C16.9733 3.85294 17.0317 3.94025 17.0715 4.03636C17.1114 4.13247 17.1319 4.23548 17.1319 4.33952C17.1319 4.44356 17.1114 4.54658 17.0715 4.64268C17.0317 4.73879 16.9733 4.8261 16.8997 4.89963L15.2214 6.57796L15.2206 6.57875Z" fill="black"/>
</svg>
