<svg width="34" height="34" viewBox="0 0 34 34" fill="none" xmlns="http://www.w3.org/2000/svg">
<path d="M28.9 13.6H30.6V32.3H3.40002V13.6H5.10002V10.2C5.10002 5.50799 8.90802 1.69999 13.6 1.69999C14.807 1.69999 15.963 1.95499 17 2.41399C18.0712 1.9416 19.2293 1.6984 20.4 1.69999C25.092 1.69999 28.9 5.50799 28.9 10.2V13.6ZM8.50002 10.2V13.6H11.9V10.2C11.9 8.27899 12.563 6.52799 13.634 5.09999H13.6C10.795 5.09999 8.50002 7.39499 8.50002 10.2ZM25.5 13.6V10.2C25.5 7.39499 23.205 5.09999 20.4 5.09999H20.366C21.4839 6.56586 22.0927 8.35654 22.1 10.2V13.6H25.5ZM17 6.42599C15.963 7.36099 15.3 8.70399 15.3 10.2V13.6H18.7V10.2C18.7 8.70399 18.037 7.36099 17 6.42599Z" fill="black"/>
</svg>
