<svg width="50" height="50" viewBox="0 0 50 50" fill="none" xmlns="http://www.w3.org/2000/svg">
<path d="M28.8125 39.5833C28.5013 39.5843 28.1937 39.5156 27.9125 39.3823C27.6313 39.2489 27.3836 39.0542 27.1875 38.8124L17.125 26.3124C16.8186 25.9397 16.6511 25.4721 16.6511 24.9895C16.6511 24.507 16.8186 24.0394 17.125 23.6666L27.5417 11.1666C27.8953 10.7412 28.4034 10.4736 28.9543 10.4228C29.5052 10.372 30.0537 10.5422 30.4792 10.8958C30.9046 11.2494 31.1722 11.7575 31.223 12.3084C31.2737 12.8593 31.1036 13.4078 30.75 13.8333L21.4375 24.9999L30.4375 36.1666C30.6923 36.4724 30.8541 36.8448 30.9038 37.2397C30.9536 37.6346 30.8892 38.0355 30.7182 38.3949C30.5473 38.7543 30.2769 39.0573 29.9392 39.2679C29.6015 39.4785 29.2105 39.5879 28.8125 39.5833Z" fill="black"/>
</svg>
