<svg width="50" height="50" viewBox="0 0 50 50" fill="none" xmlns="http://www.w3.org/2000/svg">
<path d="M21.1874 10.4167C21.4987 10.4157 21.8062 10.4844 22.0874 10.6177C22.3686 10.7511 22.6164 10.9458 22.8124 11.1876L32.8749 23.6876C33.1814 24.0603 33.3489 24.5279 33.3489 25.0105C33.3489 25.493 33.1814 25.9606 32.8749 26.3334L22.4583 38.8334C22.1047 39.2588 21.5965 39.5264 21.0456 39.5772C20.4947 39.628 19.9462 39.4578 19.5208 39.1042C19.0953 38.7506 18.8278 38.2425 18.777 37.6916C18.7262 37.1407 18.8963 36.5922 19.2499 36.1667L28.5624 25.0001L19.5624 13.8334C19.3077 13.5276 19.1459 13.1552 19.0961 12.7603C19.0464 12.3654 19.1108 11.9645 19.2817 11.6051C19.4527 11.2457 19.723 10.9427 20.0607 10.7321C20.3985 10.5215 20.7895 10.4121 21.1874 10.4167Z" fill="white"/>
</svg>
