<svg width="27" height="38" viewBox="0 0 27 38" fill="none" xmlns="http://www.w3.org/2000/svg">
<path d="M23.625 4.75H18C18 2.13008 15.982 0 13.5 0C11.018 0 9 2.13008 9 4.75H3.375C1.51172 4.75 0 6.3457 0 8.3125V34.4375C0 36.4043 1.51172 38 3.375 38H23.625C25.4883 38 27 36.4043 27 34.4375V8.3125C27 6.3457 25.4883 4.75 23.625 4.75ZM6.75 31.4688C5.81484 31.4688 5.0625 30.6746 5.0625 29.6875C5.0625 28.7004 5.81484 27.9062 6.75 27.9062C7.68516 27.9062 8.4375 28.7004 8.4375 29.6875C8.4375 30.6746 7.68516 31.4688 6.75 31.4688ZM6.75 24.3438C5.81484 24.3438 5.0625 23.5496 5.0625 22.5625C5.0625 21.5754 5.81484 20.7812 6.75 20.7812C7.68516 20.7812 8.4375 21.5754 8.4375 22.5625C8.4375 23.5496 7.68516 24.3438 6.75 24.3438ZM6.75 17.2188C5.81484 17.2188 5.0625 16.4246 5.0625 15.4375C5.0625 14.4504 5.81484 13.6562 6.75 13.6562C7.68516 13.6562 8.4375 14.4504 8.4375 15.4375C8.4375 16.4246 7.68516 17.2188 6.75 17.2188ZM13.5 2.96875C14.4352 2.96875 15.1875 3.76289 15.1875 4.75C15.1875 5.73711 14.4352 6.53125 13.5 6.53125C12.5648 6.53125 11.8125 5.73711 11.8125 4.75C11.8125 3.76289 12.5648 2.96875 13.5 2.96875ZM22.5 30.2812C22.5 30.6078 22.2469 30.875 21.9375 30.875H11.8125C11.5031 30.875 11.25 30.6078 11.25 30.2812V29.0938C11.25 28.7672 11.5031 28.5 11.8125 28.5H21.9375C22.2469 28.5 22.5 28.7672 22.5 29.0938V30.2812ZM22.5 23.1562C22.5 23.4828 22.2469 23.75 21.9375 23.75H11.8125C11.5031 23.75 11.25 23.4828 11.25 23.1562V21.9688C11.25 21.6422 11.5031 21.375 11.8125 21.375H21.9375C22.2469 21.375 22.5 21.6422 22.5 21.9688V23.1562ZM22.5 16.0312C22.5 16.3578 22.2469 16.625 21.9375 16.625H11.8125C11.5031 16.625 11.25 16.3578 11.25 16.0312V14.8438C11.25 14.5172 11.5031 14.25 11.8125 14.25H21.9375C22.2469 14.25 22.5 14.5172 22.5 14.8438V16.0312Z" fill="black"/>
</svg>
