<svg width="22" height="29" viewBox="0 0 22 29" fill="none" xmlns="http://www.w3.org/2000/svg">
<path d="M20.625 3.625C21.3844 3.625 22 3.0164 22 2.26562V1.35938C22 0.608604 21.3844 0 20.625 0H1.375C0.615599 0 0 0.608604 0 1.35938V2.26562C0 3.0164 0.615599 3.625 1.375 3.625C1.375 8.77731 4.29779 13.1256 8.29824 14.5C4.29779 15.8744 1.375 20.2227 1.375 25.375C0.615599 25.375 0 25.9836 0 26.7344V27.6406C0 28.3914 0.615599 29 1.375 29H20.625C21.3844 29 22 28.3914 22 27.6406V26.7344C22 25.9836 21.3844 25.375 20.625 25.375C20.625 20.2227 17.7022 15.8744 13.7018 14.5C17.7022 13.1256 20.625 8.77731 20.625 3.625ZM11 11.7812C7.68929 11.7812 5.04167 8.01363 5.04167 3.625H16.9583C16.9583 8.03985 14.2937 11.7812 11 11.7812Z" fill="white"/>
</svg>
