<svg width="24" height="24" viewBox="0 0 24 24" fill="none" xmlns="http://www.w3.org/2000/svg">
<path d="M13.925 2.503C14.317 2.50297 14.7023 2.60537 15.0426 2.80007C15.3829 2.99477 15.6664 3.275 15.865 3.613L16.679 5H18.75C19.1768 5 19.5994 5.08406 19.9937 5.24739C20.388 5.41072 20.7463 5.65011 21.0481 5.9519C21.3499 6.25369 21.5893 6.61197 21.7526 7.00628C21.9159 7.40059 22 7.8232 22 8.25V17.75C22 18.1768 21.9159 18.5994 21.7526 18.9937C21.5893 19.388 21.3499 19.7463 21.0481 20.0481C20.7463 20.3499 20.388 20.5893 19.9937 20.7526C19.5994 20.9159 19.1768 21 18.75 21H5.25C4.38805 21 3.5614 20.6576 2.9519 20.0481C2.34241 19.4386 2 18.612 2 17.75V8.25C2 7.38804 2.34241 6.56139 2.9519 5.9519C3.5614 5.34241 4.38805 5 5.25 5H7.33L8.205 3.576C8.40619 3.24822 8.68804 2.97748 9.02364 2.78963C9.35925 2.60179 9.7374 2.5031 10.122 2.503H13.925ZM13.925 4.003H10.122C10.0126 4.00309 9.90448 4.02712 9.80532 4.07342C9.70616 4.11972 9.61833 4.18716 9.548 4.271L9.483 4.361L8.39 6.141C8.32298 6.25032 8.22904 6.34063 8.11717 6.40331C8.0053 6.46598 7.87923 6.49893 7.751 6.499H5.251C5.02102 6.49887 4.79327 6.54407 4.58077 6.63202C4.36827 6.71997 4.17518 6.84894 4.01256 7.01156C3.84994 7.17418 3.72097 7.36726 3.63302 7.57976C3.54507 7.79226 3.49987 8.02002 3.5 8.25V17.75C3.5 18.716 4.284 19.5 5.25 19.5H18.75C19.2141 19.5 19.6592 19.3156 19.9874 18.9874C20.3156 18.6592 20.5 18.2141 20.5 17.75V8.25C20.5 7.78587 20.3156 7.34075 19.9874 7.01256C19.6592 6.68437 19.2141 6.5 18.75 6.5H16.25C16.1193 6.50007 15.9908 6.46596 15.8773 6.40106C15.7638 6.33615 15.6692 6.24271 15.603 6.13L14.571 4.373C14.5048 4.26043 14.4104 4.16708 14.2971 4.10219C14.1838 4.03729 14.0556 4.0031 13.925 4.003ZM12 8C13.1935 8 14.3381 8.4741 15.182 9.31802C16.0259 10.1619 16.5 11.3065 16.5 12.5C16.5 13.6935 16.0259 14.8381 15.182 15.682C14.3381 16.5259 13.1935 17 12 17C10.8065 17 9.66193 16.5259 8.81802 15.682C7.97411 14.8381 7.5 13.6935 7.5 12.5C7.5 11.3065 7.97411 10.1619 8.81802 9.31802C9.66193 8.4741 10.8065 8 12 8ZM12 9.5C11.606 9.5 11.2159 9.5776 10.8519 9.72836C10.488 9.87912 10.1573 10.1001 9.87868 10.3787C9.6001 10.6573 9.37913 10.988 9.22836 11.3519C9.0776 11.7159 9 12.106 9 12.5C9 12.894 9.0776 13.2841 9.22836 13.648C9.37913 14.012 9.6001 14.3427 9.87868 14.6213C10.1573 14.8999 10.488 15.1209 10.8519 15.2716C11.2159 15.4224 11.606 15.5 12 15.5C12.7956 15.5 13.5587 15.1839 14.1213 14.6213C14.6839 14.0587 15 13.2956 15 12.5C15 11.7043 14.6839 10.9413 14.1213 10.3787C13.5587 9.81607 12.7956 9.5 12 9.5Z" fill="black"/>
</svg>
