<svg width="19" height="16" viewBox="0 0 19 16" fill="none" xmlns="http://www.w3.org/2000/svg">
<path d="M9.49995 1C10.1518 0.999923 10.7801 1.20504 11.2615 1.57509C11.743 1.94513 12.0427 2.45337 12.102 3H16.15C16.3305 3.00005 16.5042 3.0578 16.6362 3.16158C16.7681 3.26536 16.8483 3.40744 16.8606 3.5591C16.8729 3.71077 16.8164 3.86071 16.7024 3.97864C16.5885 4.09657 16.4257 4.17368 16.2469 4.1944L16.15 4.2H15.5961L14.3925 12.984C14.3388 13.3739 14.1169 13.7336 13.7689 13.9947C13.4208 14.2558 12.9709 14.4001 12.5048 14.4H6.4951C6.02898 14.4001 5.5791 14.2558 5.23105 13.9947C4.88299 13.7336 4.66106 13.3739 4.60745 12.984L3.40285 4.2H2.84995C2.67778 4.19999 2.51143 4.14749 2.38167 4.05219C2.25191 3.95689 2.16752 3.82524 2.1441 3.6816L2.13745 3.6C2.13746 3.45501 2.19981 3.31493 2.31298 3.20566C2.42615 3.09639 2.58248 3.02532 2.75305 3.0056L2.84995 3H6.8979C6.95716 2.45337 7.25694 1.94513 7.73837 1.57509C8.21981 1.20504 8.84813 0.999923 9.49995 1ZM8.07495 6C7.8422 6 7.64745 6.124 7.60755 6.2872L7.59995 6.3504V11.2504L7.60755 11.3128C7.64745 11.476 7.8422 11.6 8.07495 11.6C8.3077 11.6 8.50245 11.476 8.54235 11.3128L8.54995 11.2496V6.3512L8.54235 6.2872C8.50245 6.1248 8.3077 6 8.07495 6ZM10.925 6C10.6922 6 10.4975 6.124 10.4576 6.2872L10.45 6.3504V11.2504L10.4576 11.3128C10.4975 11.476 10.6922 11.6 10.925 11.6C11.1577 11.6 11.3525 11.476 11.3924 11.3128L11.4 11.2496V6.3512L11.3924 6.2872C11.3525 6.1248 11.1577 6.0008 10.925 6.0008V6ZM9.49995 2.2C8.9252 2.2 8.44545 2.544 8.3362 3H10.6637C10.5535 2.544 10.0747 2.2 9.49995 2.2Z" fill="black"/>
</svg>
