<svg width="42" height="42" viewBox="0 0 42 42" fill="none" xmlns="http://www.w3.org/2000/svg">
<path d="M6.89062 3.9375C5.75931 3.9375 4.67433 4.38691 3.87437 5.18687C3.07441 5.98683 2.625 7.07181 2.625 8.20312V28.5469C2.625 29.6782 3.07441 30.7632 3.87437 31.5631C4.67433 32.3631 5.75931 32.8125 6.89062 32.8125H15.7631V35.4388H11.8282C11.6525 35.4332 11.4774 35.4631 11.3134 35.5265C11.1494 35.5899 10.9998 35.6857 10.8735 35.808C10.7472 35.9304 10.6467 36.0769 10.5782 36.2388C10.5096 36.4007 10.4742 36.5748 10.4742 36.7507C10.4742 36.9265 10.5096 37.1006 10.5782 37.2625C10.6467 37.4244 10.7472 37.5709 10.8735 37.6933C10.9998 37.8157 11.1494 37.9114 11.3134 37.9748C11.4774 38.0382 11.6525 38.0681 11.8282 38.0625H30.1927C30.3685 38.0681 30.5436 38.0382 30.7076 37.9748C30.8716 37.9114 31.0212 37.8157 31.1475 37.6933C31.2738 37.5709 31.3743 37.4244 31.4428 37.2625C31.5114 37.1006 31.5468 36.9265 31.5468 36.7507C31.5468 36.5748 31.5114 36.4007 31.4428 36.2388C31.3743 36.0769 31.2738 35.9304 31.1475 35.808C31.0212 35.6857 30.8716 35.5899 30.7076 35.5265C30.5436 35.4631 30.3685 35.4332 30.1927 35.4388H26.2579V32.8125H35.1094C36.2407 32.8125 37.3257 32.3631 38.1256 31.5631C38.9256 30.7632 39.375 29.6782 39.375 28.5469V8.20312C39.375 7.07181 38.9256 5.98683 38.1256 5.18687C37.3257 4.38691 36.2407 3.9375 35.1094 3.9375H6.89062ZM23.6329 32.8125V35.4388H18.3881V32.8125H23.6329ZM5.25 8.20312C5.25 7.2975 5.985 6.5625 6.89062 6.5625H35.1094C36.015 6.5625 36.75 7.2975 36.75 8.20312V28.5469C36.75 29.4525 36.015 30.1875 35.1094 30.1875H6.89062C5.985 30.1875 5.25 29.4525 5.25 28.5469V8.20312Z" fill="black"/>
</svg>
