<svg width="65" height="65" viewBox="0 0 65 65" fill="none" xmlns="http://www.w3.org/2000/svg">
<path d="M12.1875 12.1875C10.0326 12.1875 7.96599 13.0435 6.44226 14.5673C4.91852 16.091 4.0625 18.1576 4.0625 20.3125V24.375H60.9375V20.3125C60.9375 18.1576 60.0815 16.091 58.5577 14.5673C57.034 13.0435 54.9674 12.1875 52.8125 12.1875H12.1875Z" fill="#512B58"/>
<path d="M4.0625 44.6875V28.4375H60.9375V44.6875C60.9375 46.8424 60.0815 48.909 58.5577 50.4327C57.034 51.9565 54.9674 52.8125 52.8125 52.8125H12.1875C10.0326 52.8125 7.96599 51.9565 6.44226 50.4327C4.91852 48.909 4.0625 46.8424 4.0625 44.6875ZM42.6562 40.625C42.1175 40.625 41.6009 40.839 41.2199 41.2199C40.839 41.6009 40.625 42.1175 40.625 42.6562C40.625 43.195 40.839 43.7116 41.2199 44.0926C41.6009 44.4735 42.1175 44.6875 42.6562 44.6875H50.7812C51.32 44.6875 51.8366 44.4735 52.2176 44.0926C52.5985 43.7116 52.8125 43.195 52.8125 42.6562C52.8125 42.1175 52.5985 41.6009 52.2176 41.2199C51.8366 40.839 51.32 40.625 50.7812 40.625H42.6562Z" fill="#512B58"/>
</svg>
