<svg width="31" height="26" viewBox="0 0 31 26" fill="none" xmlns="http://www.w3.org/2000/svg">
<path d="M15.4999 1.625C16.5634 1.62487 17.5886 1.9582 18.3741 2.55952C19.1596 3.16084 19.6487 3.98672 19.7454 4.875H26.3499C26.6445 4.87508 26.928 4.96892 27.1432 5.13756C27.3584 5.30621 27.4893 5.53709 27.5094 5.78354C27.5294 6.03 27.4372 6.27366 27.2514 6.46529C27.0655 6.65692 26.7998 6.78223 26.508 6.8159L26.3499 6.825H25.4463L23.4824 21.099C23.395 21.7326 23.0329 22.3172 22.465 22.7414C21.8971 23.1657 21.1631 23.4001 20.4026 23.4H10.5973C9.83677 23.4001 9.10275 23.1657 8.53487 22.7414C7.967 22.3172 7.60489 21.7326 7.51743 21.099L5.55203 6.825H4.64993C4.36901 6.82499 4.0976 6.73966 3.88588 6.5848C3.67417 6.42994 3.53648 6.21602 3.49828 5.9826L3.48743 5.85C3.48744 5.61439 3.58917 5.38676 3.77382 5.20919C3.95846 5.03163 4.21352 4.91614 4.49183 4.8841L4.64993 4.875H11.2545C11.3512 3.98672 11.8403 3.16084 12.6258 2.55952C13.4113 1.9582 14.4364 1.62487 15.4999 1.625ZM13.1749 9.75C12.7952 9.75 12.4774 9.9515 12.4123 10.2167L12.3999 10.3194V18.2819L12.4123 18.3833C12.4774 18.6485 12.7952 18.85 13.1749 18.85C13.5547 18.85 13.8724 18.6485 13.9375 18.3833L13.9499 18.2806V10.3207L13.9375 10.2167C13.8724 9.9528 13.5547 9.75 13.1749 9.75ZM17.8249 9.75C17.4452 9.75 17.1274 9.9515 17.0623 10.2167L17.0499 10.3194V18.2819L17.0623 18.3833C17.1274 18.6485 17.4452 18.85 17.8249 18.85C18.2047 18.85 18.5224 18.6485 18.5875 18.3833L18.5999 18.2806V10.3207L18.5875 10.2167C18.5224 9.9528 18.2047 9.7513 17.8249 9.7513V9.75ZM15.4999 3.575C14.5622 3.575 13.7794 4.134 13.6012 4.875H17.3987C17.2189 4.134 16.4377 3.575 15.4999 3.575Z" fill="white"/>
</svg>
