<svg width="65" height="65" viewBox="0 0 65 65" fill="none" xmlns="http://www.w3.org/2000/svg">
<path d="M54.4237 15.3203C54.4226 15.1401 54.3719 14.9637 54.2774 14.8103C54.1828 14.6568 54.048 14.5323 53.8875 14.4503C53.727 14.3683 53.5471 14.3319 53.3674 14.3452C53.1876 14.3584 53.015 14.4207 52.8683 14.5254L49.0047 17.2957L48.7005 17.5141C44.5372 13.3599 38.8231 10.7612 32.4908 10.7612C23.8562 10.7612 16.3201 15.5413 12.3791 22.5919L12.3947 22.6003C12.2202 22.9742 12.192 23.3999 12.3157 23.7935C12.4393 24.1872 12.7059 24.5202 13.0629 24.7271L18.3513 27.7802C18.5396 27.889 18.7475 27.9597 18.9631 27.9882C19.1787 28.0167 19.3978 28.0024 19.6079 27.9461C19.818 27.8899 20.0149 27.7927 20.1874 27.6603C20.3599 27.5279 20.5047 27.3628 20.6133 27.1744C20.6172 27.1672 20.6192 27.1594 20.6231 27.1523C22.9572 22.9897 27.4078 20.1667 32.5109 20.1667C35.6823 20.1667 38.5897 21.2691 40.905 23.0917L40.2544 23.5591L36.3882 26.3294C36.2421 26.4349 36.1279 26.5785 36.058 26.7445C35.9881 26.9106 35.9653 27.0926 35.9919 27.2708C36.0185 27.449 36.0937 27.6164 36.2091 27.7547C36.3245 27.893 36.4757 27.997 36.6462 28.0551L53.1868 33.69C53.3346 33.74 53.4922 33.754 53.6465 33.731C53.8008 33.7079 53.9474 33.6484 54.0741 33.5573C54.2009 33.4662 54.304 33.3463 54.3751 33.2073C54.4462 33.0684 54.4831 32.9146 54.4829 32.7585L54.4237 15.3203Z" fill="#512B58"/>
<path d="M51.9376 40.2729L51.9363 40.2722L46.6479 37.2192C46.4596 37.1103 46.2518 37.0396 46.0361 37.0111C45.8205 36.9826 45.6014 36.9969 45.3913 37.0532C45.1813 37.1095 44.9843 37.2066 44.8118 37.339C44.6393 37.4714 44.4946 37.6366 44.3859 37.825C44.382 37.8321 44.3801 37.8399 44.3762 37.8471C42.042 42.0097 37.5915 44.8326 32.4883 44.8326C29.317 44.8326 26.4095 43.7302 24.0942 41.9076L24.7449 41.4403L28.6111 38.67C28.7571 38.5645 28.8713 38.4208 28.9412 38.2548C29.0111 38.0888 29.034 37.9067 29.0073 37.7285C28.9807 37.5504 28.9056 37.383 28.7901 37.2446C28.6747 37.1063 28.5235 37.0024 28.353 36.9442L11.8125 31.3094C11.6646 31.2593 11.507 31.2453 11.3527 31.2684C11.1984 31.2914 11.0518 31.351 10.9251 31.442C10.7984 31.5331 10.6952 31.6531 10.6241 31.792C10.553 31.9309 10.5161 32.0848 10.5164 32.2408L10.5762 49.679C10.5773 49.8592 10.6279 50.0357 10.7225 50.1891C10.817 50.3425 10.9519 50.467 11.1124 50.549C11.2729 50.631 11.4528 50.6674 11.6325 50.6542C11.8122 50.6409 11.9849 50.5786 12.1316 50.474L15.9952 47.7037L16.2994 47.4853C20.4627 51.6394 26.1768 54.2381 32.5091 54.2381C41.1437 54.2381 48.6798 49.458 52.6208 42.4075L52.6045 42.3997C52.7791 42.0259 52.8075 41.6004 52.6841 41.2067C52.5607 40.8131 52.2944 40.48 51.9376 40.2729Z" fill="#512B58"/>
</svg>
