<svg width="34" height="34" viewBox="0 0 34 34" fill="none" xmlns="http://www.w3.org/2000/svg">
<path d="M5.66667 18.4167H14.1667C14.9458 18.4167 15.5833 17.7792 15.5833 17V5.66667C15.5833 4.8875 14.9458 4.25 14.1667 4.25H5.66667C4.8875 4.25 4.25 4.8875 4.25 5.66667V17C4.25 17.7792 4.8875 18.4167 5.66667 18.4167ZM5.66667 29.75H14.1667C14.9458 29.75 15.5833 29.1125 15.5833 28.3333V22.6667C15.5833 21.8875 14.9458 21.25 14.1667 21.25H5.66667C4.8875 21.25 4.25 21.8875 4.25 22.6667V28.3333C4.25 29.1125 4.8875 29.75 5.66667 29.75ZM19.8333 29.75H28.3333C29.1125 29.75 29.75 29.1125 29.75 28.3333V17C29.75 16.2208 29.1125 15.5833 28.3333 15.5833H19.8333C19.0542 15.5833 18.4167 16.2208 18.4167 17V28.3333C18.4167 29.1125 19.0542 29.75 19.8333 29.75ZM18.4167 5.66667V11.3333C18.4167 12.1125 19.0542 12.75 19.8333 12.75H28.3333C29.1125 12.75 29.75 12.1125 29.75 11.3333V5.66667C29.75 4.8875 29.1125 4.25 28.3333 4.25H19.8333C19.0542 4.25 18.4167 4.8875 18.4167 5.66667Z" fill="white"/>
</svg>
