<svg width="25" height="26" viewBox="0 0 25 26" fill="none" xmlns="http://www.w3.org/2000/svg">
<path d="M8.59375 21.9375C9.02522 21.9375 9.375 21.5737 9.375 21.125C9.375 20.6763 9.02522 20.3125 8.59375 20.3125C8.16228 20.3125 7.8125 20.6763 7.8125 21.125C7.8125 21.5737 8.16228 21.9375 8.59375 21.9375Z" stroke="white" stroke-width="1.5" stroke-linecap="round" stroke-linejoin="round"/>
<path d="M19.5312 21.9375C19.9627 21.9375 20.3125 21.5737 20.3125 21.125C20.3125 20.6763 19.9627 20.3125 19.5312 20.3125C19.0998 20.3125 18.75 20.6763 18.75 21.125C18.75 21.5737 19.0998 21.9375 19.5312 21.9375Z" stroke="white" stroke-width="1.5" stroke-linecap="round" stroke-linejoin="round"/>
<path d="M2.34375 4.0625H5.46875L7.8125 17.875H20.3125" stroke="white" stroke-width="1.5" stroke-linecap="round" stroke-linejoin="round"/>
<path d="M7.8125 14.625H19.9922C20.0825 14.6251 20.1701 14.5926 20.24 14.533C20.3099 14.4735 20.3578 14.3906 20.3755 14.2985L21.7817 6.98598C21.7931 6.92701 21.7917 6.86616 21.7777 6.80782C21.7637 6.74948 21.7374 6.6951 21.7007 6.6486C21.6641 6.60211 21.6179 6.56466 21.5656 6.53896C21.5134 6.51327 21.4563 6.49996 21.3984 6.5H6.25" stroke="white" stroke-width="1.5" stroke-linecap="round" stroke-linejoin="round"/>
</svg>
