<svg width="42" height="42" viewBox="0 0 42 42" fill="none" xmlns="http://www.w3.org/2000/svg">
<path d="M27.5625 9.1875H14.4375C11.538 9.1875 9.1875 11.538 9.1875 14.4375V27.5625C9.1875 30.462 11.538 32.8125 14.4375 32.8125H27.5625C30.462 32.8125 32.8125 30.462 32.8125 27.5625V14.4375C32.8125 11.538 30.462 9.1875 27.5625 9.1875Z" stroke="black" stroke-width="1.5" stroke-linejoin="round"/>
<path d="M14.4375 9.1875V3.28125C14.4375 3.1072 14.5066 2.94028 14.6297 2.81721C14.7528 2.69414 14.9197 2.625 15.0938 2.625H26.9062C27.0803 2.625 27.2472 2.69414 27.3703 2.81721C27.4934 2.94028 27.5625 3.1072 27.5625 3.28125V9.1875" stroke="black" stroke-width="1.5" stroke-linejoin="round"/>
<path d="M27.5625 32.8125V38.7188C27.5625 38.8928 27.4934 39.0597 27.3703 39.1828C27.2472 39.3059 27.0803 39.375 26.9062 39.375H15.0938C14.9197 39.375 14.7528 39.3059 14.6297 39.1828C14.5066 39.0597 14.4375 38.8928 14.4375 38.7188V32.8125" stroke="black" stroke-width="1.5" stroke-linejoin="round"/>
</svg>
