<svg width="65" height="65" viewBox="0 0 65 65" fill="none" xmlns="http://www.w3.org/2000/svg">
<path d="M60.6379 4.85722C60.6148 4.74494 60.5601 4.6416 60.4802 4.5593C60.4004 4.477 60.2988 4.41917 60.1873 4.39257C52.7516 2.5746 35.5711 9.05302 26.2628 18.3574C24.6027 20.0042 23.0891 21.7925 21.7395 23.7021C18.8691 23.4482 15.9987 23.6603 13.5523 24.7267C6.64986 27.7646 4.64019 35.6916 4.08033 39.1016C4.04857 39.2882 4.06055 39.4797 4.11532 39.6609C4.17009 39.8421 4.26616 40.0082 4.39598 40.146C4.52579 40.2838 4.6858 40.3896 4.86344 40.4551C5.04107 40.5206 5.23148 40.544 5.41968 40.5234L16.504 39.3009C16.5119 40.1366 16.5623 40.9713 16.655 41.8019C16.7108 42.3786 16.9668 42.9176 17.3787 43.3253L21.671 47.6074C22.079 48.0187 22.6178 48.2747 23.1944 48.3311C24.0203 48.4234 24.8504 48.4739 25.6814 48.4821L24.4652 59.5524C24.4449 59.7406 24.4685 59.9309 24.5341 60.1084C24.5997 60.2859 24.7055 60.4458 24.8432 60.5755C24.981 60.7053 25.1469 60.8014 25.328 60.8562C25.5091 60.9111 25.7005 60.9233 25.8871 60.8918C29.2907 60.3459 37.2316 58.3362 40.2518 51.4338C41.3182 48.9874 41.5366 46.131 41.2903 43.2745C43.2045 41.9248 44.9975 40.4109 46.649 38.7499C55.9864 29.4595 62.428 12.6623 60.6379 4.85722ZM37.3332 27.6669C36.4805 26.8148 35.8998 25.729 35.6643 24.5468C35.4289 23.3647 35.5493 22.1392 36.0104 21.0255C36.4715 19.9118 37.2526 18.9598 38.2548 18.2901C39.257 17.6203 40.4353 17.2628 41.6407 17.2628C42.8461 17.2628 44.0244 17.6203 45.0266 18.2901C46.0288 18.9598 46.8098 19.9118 47.271 21.0255C47.7321 22.1392 47.8525 23.3647 47.617 24.5468C47.3816 25.729 46.8008 26.8148 45.9482 27.6669C45.3828 28.2331 44.7114 28.6823 43.9722 28.9887C43.2331 29.2952 42.4408 29.4529 41.6407 29.4529C40.8405 29.4529 40.0482 29.2952 39.3091 28.9887C38.57 28.6823 37.8985 28.2331 37.3332 27.6669Z" fill="#512B58"/>
<path d="M21.3789 50.7089C20.6832 51.4059 19.5673 51.6775 18.2241 51.9099C15.2064 52.424 12.5417 49.8164 13.0838 46.7657C13.2907 45.6092 13.9026 43.988 14.2835 43.6071C14.3667 43.5255 14.4222 43.4197 14.4419 43.3048C14.4616 43.1899 14.4446 43.0717 14.3933 42.9669C14.342 42.8622 14.259 42.7764 14.1561 42.7215C14.0532 42.6666 13.9356 42.6456 13.8201 42.6613C12.1326 42.8678 10.5627 43.6329 9.36025 44.8348C6.37559 47.822 6.09375 58.9062 6.09375 58.9062C6.09375 58.9062 17.1844 58.6244 20.169 55.6372C21.3747 54.4358 22.1407 52.8634 22.3438 51.1735C22.3907 50.6429 21.7445 50.3268 21.3789 50.7089Z" fill="#512B58"/>
</svg>
