<svg width="108" height="108" viewBox="0 0 108 108" fill="none" xmlns="http://www.w3.org/2000/svg">
<path d="M94.5 54.585C93.825 54.63 93.195 54.855 92.745 55.35L88.245 59.85L97.47 68.85L101.97 64.35C102.96 63.405 102.96 61.83 101.97 60.885L96.39 55.35C95.9403 54.8836 95.3275 54.6094 94.68 54.585H94.5ZM85.68 62.46L58.5 89.73V99H67.77L95.04 71.685L85.68 62.46ZM90 18H18C15.6131 18 13.3239 18.9482 11.636 20.636C9.94821 22.3239 9 24.6131 9 27V81C9 83.3869 9.94821 85.6761 11.636 87.364C13.3239 89.0518 15.6131 90 18 90H49.5V85.995L86.58 49.005C88.695 46.8 91.62 45.585 94.68 45.585C96.21 45.585 97.74 45.855 99.18 46.44V27C99.18 21.96 95.04 18 90 18V18ZM90 36L54 58.5L18 36V27L54 49.5L90 27" fill="black"/>
</svg>
