<svg width="26" height="26" viewBox="0 0 26 26" fill="none" xmlns="http://www.w3.org/2000/svg">
<path d="M13 2.16666C11.5773 2.16666 10.1686 2.44687 8.85422 2.99129C7.53986 3.53572 6.3456 4.3337 5.33964 5.33967C3.30799 7.37131 2.16663 10.1268 2.16663 13C2.16663 15.8732 3.30799 18.6287 5.33964 20.6603C6.3456 21.6663 7.53986 22.4643 8.85422 23.0087C10.1686 23.5531 11.5773 23.8333 13 23.8333C15.8731 23.8333 18.6286 22.692 20.6603 20.6603C22.6919 18.6287 23.8333 15.8732 23.8333 13C23.8333 11.5773 23.5531 10.1686 23.0087 8.85425C22.4642 7.53989 21.6663 6.34563 20.6603 5.33967C19.6543 4.3337 18.4601 3.53572 17.1457 2.99129C15.8313 2.44687 14.4226 2.16666 13 2.16666ZM7.65913 19.8033C8.12496 18.8283 10.9633 17.875 13 17.875C15.0366 17.875 17.875 18.8283 18.3408 19.8033C16.8235 21.0124 14.9401 21.6694 13 21.6667C10.985 21.6667 9.13246 20.9733 7.65913 19.8033ZM19.89 18.2325C18.3408 16.3475 14.5816 15.7083 13 15.7083C11.4183 15.7083 7.65913 16.3475 6.10996 18.2325C4.95749 16.7317 4.33293 14.8923 4.33329 13C4.33329 8.22249 8.22246 4.33332 13 4.33332C17.7775 4.33332 21.6666 8.22249 21.6666 13C21.6666 14.9717 20.995 16.7917 19.89 18.2325ZM13 6.49999C10.8983 6.49999 9.20829 8.18999 9.20829 10.2917C9.20829 12.3933 10.8983 14.0833 13 14.0833C15.1016 14.0833 16.7916 12.3933 16.7916 10.2917C16.7916 8.18999 15.1016 6.49999 13 6.49999ZM13 11.9167C12.569 11.9167 12.1557 11.7455 11.8509 11.4407C11.5462 11.136 11.375 10.7226 11.375 10.2917C11.375 9.86068 11.5462 9.44735 11.8509 9.14261C12.1557 8.83786 12.569 8.66666 13 8.66666C13.4309 8.66666 13.8443 8.83786 14.149 9.14261C14.4538 9.44735 14.625 9.86068 14.625 10.2917C14.625 10.7226 14.4538 11.136 14.149 11.4407C13.8443 11.7455 13.4309 11.9167 13 11.9167Z" fill="black"/>
</svg>
