<svg width="24" height="24" viewBox="0 0 24 24" fill="none" xmlns="http://www.w3.org/2000/svg">
<path fill-rule="evenodd" clip-rule="evenodd" d="M9.12589 0.640004C9.39192 0.486409 9.6937 0.405548 10.0009 0.405548C10.3081 0.405548 10.6099 0.486409 10.8759 0.640004L19.1259 5.402C19.2289 5.462 19.3249 5.53 19.4119 5.608C19.5139 5.63007 19.6102 5.67326 19.6946 5.73478C19.7789 5.79631 19.8494 5.87481 19.9016 5.96523C19.9538 6.05566 19.9865 6.156 19.9976 6.25982C20.0086 6.36363 19.9978 6.46861 19.9659 6.568C19.9889 6.681 20.0009 6.798 20.0009 6.918V10.25C20.0009 10.4489 19.9219 10.6397 19.7812 10.7803C19.6406 10.921 19.4498 11 19.2509 11C19.052 11 18.8612 10.921 18.7206 10.7803C18.5799 10.6397 18.5009 10.4489 18.5009 10.25V7.64L10.7509 12.114V22.36C10.751 22.4917 10.7164 22.6211 10.6506 22.7352C10.5848 22.8493 10.4901 22.944 10.3761 23.0099C10.2621 23.0758 10.1327 23.1105 10.001 23.1105C9.86931 23.1105 9.73994 23.0759 9.62589 23.01L0.875885 17.958C0.609931 17.8045 0.389067 17.5836 0.235477 17.3177C0.0818869 17.0518 0.000980684 16.7501 0.000885132 16.443V6.917C0.000885132 6.798 0.0128851 6.681 0.0358851 6.567C0.00393621 6.46761 -0.00685226 6.36263 0.00421383 6.25882C0.0152799 6.155 0.0479555 6.05466 0.100138 5.96423C0.152321 5.87381 0.222855 5.79531 0.307203 5.73378C0.39155 5.67226 0.487843 5.62907 0.589885 5.607C0.678089 5.52923 0.773906 5.46055 0.875885 5.402L9.12589 0.639004V0.640004ZM1.50089 7.638V16.441C1.50089 16.531 1.54889 16.613 1.62589 16.657L9.25089 21.059V12.112L1.50089 7.638ZM10.0009 10.813L2.25089 6.34L9.87589 1.938C9.91389 1.91606 9.957 1.90451 10.0009 1.90451C10.0448 1.90451 10.0879 1.91606 10.1259 1.938L17.7509 6.34L10.0009 10.814V10.813Z" fill="black"/>
<path d="M16.6168 17.5L19.5118 14.798C19.6549 14.6617 19.7384 14.4743 19.7442 14.2768C19.75 14.0792 19.6775 13.8873 19.5426 13.7429C19.4076 13.5985 19.2211 13.5131 19.0236 13.5055C18.8261 13.4978 18.6335 13.5684 18.4878 13.702L14.2028 17.702C14.1277 17.7722 14.0678 17.857 14.0269 17.9513C13.986 18.0455 13.9648 18.1472 13.9648 18.25C13.9648 18.3528 13.986 18.4544 14.0269 18.5487C14.0678 18.643 14.1277 18.7278 14.2028 18.798L18.4878 22.798C18.5596 22.8663 18.6441 22.9198 18.7367 22.9552C18.8292 22.9907 18.9279 23.0075 19.0269 23.0046C19.126 23.0017 19.2235 22.9792 19.3138 22.9384C19.4041 22.8976 19.4854 22.8393 19.5531 22.7669C19.6207 22.6945 19.6734 22.6094 19.7079 22.5166C19.7425 22.4237 19.7583 22.3249 19.7545 22.2259C19.7507 22.1268 19.7272 22.0295 19.6856 21.9396C19.6439 21.8497 19.5849 21.7689 19.5118 21.702L16.6168 19H23.2498C23.4487 19 23.6395 18.921 23.7801 18.7803C23.9208 18.6397 23.9998 18.4489 23.9998 18.25C23.9998 18.0511 23.9208 17.8603 23.7801 17.7197C23.6395 17.579 23.4487 17.5 23.2498 17.5H16.6168Z" fill="black"/>
</svg>
