<svg width="42" height="42" viewBox="0 0 42 42" fill="none" xmlns="http://www.w3.org/2000/svg">
<g clip-path="url(#clip0_361:105)">
<path d="M3.98915 23.5403L18.4665 39.7984C19.7333 41.1532 21.2112 41.8306 22.9002 41.8306C24.4083 41.8306 25.7052 41.4072 26.791 40.5605L39.3682 30.6532C40.5746 29.6371 41.2683 28.3669 41.4493 26.8427C41.6303 25.4314 41.1778 24.0484 40.092 22.6935L25.6147 6.43547C24.0463 4.51611 21.9954 3.3024 19.4618 2.79434L6.88462 0.0846602C5.67818 -0.254049 4.53205 -1.72146e-05 3.44625 0.846757L1.90803 2.11692C1.0032 2.73789 0.550781 3.75402 0.550781 5.16531L1.27465 17.2742C1.57626 19.7016 2.48109 21.7903 3.98915 23.5403ZM6.16076 3.55643L18.9189 6.43547C20.246 6.71772 21.5731 7.47982 22.9002 8.72176L37.3775 24.9798C37.8601 25.4314 38.0109 25.9395 37.83 26.504C37.83 26.8427 37.5585 27.3226 37.0156 27.9435L24.4384 37.8508C24.0162 38.1895 23.5034 38.3447 22.9002 38.3165C22.297 38.2883 21.8446 38.0766 21.5429 37.6814L7.06559 21.4234C5.91947 20.0685 5.3464 18.6855 5.3464 17.2742L4.44157 4.8266L6.16076 3.55643ZM11.3183 9.48385C11.3183 9.99192 11.1373 10.4153 10.7754 10.754C10.4135 11.0927 9.96106 11.2621 9.41816 11.2621C8.87526 11.2621 8.42284 11.0927 8.06091 10.754C7.69897 10.4153 7.51801 9.99192 7.51801 9.48385C7.51801 8.97579 7.69897 8.5524 8.06091 8.21369C8.42284 7.87498 8.87526 7.70563 9.41816 7.70563C9.96106 7.70563 10.4135 7.87498 10.7754 8.21369C11.1373 8.5524 11.3183 8.97579 11.3183 9.48385ZM12.3136 22.1008L30.0484 27.3508H30.6818C31.5263 27.3508 32.1597 26.9274 32.5819 26.0806C32.7629 25.629 32.7327 25.1774 32.4914 24.7258C32.2501 24.2742 31.8882 23.9637 31.4056 23.7943L13.6709 18.5443C13.1883 18.3185 12.6906 18.3185 12.1779 18.5443C11.6652 18.7701 11.3183 19.1089 11.1373 19.5605C10.7754 20.8589 11.1675 21.7056 12.3136 22.1008ZM26.791 30.2298C26.791 30.9637 26.5195 31.5988 25.9766 32.1351C25.4337 32.6714 24.74 32.9395 23.8955 32.9395C23.051 32.9395 22.3573 32.6714 21.8144 32.1351C21.2715 31.5988 21 30.9637 21 30.2298C21 29.496 21.2866 28.8609 21.8596 28.3246C22.4327 27.7883 23.1113 27.5201 23.8955 27.5201C24.6797 27.5201 25.3583 27.7883 25.9314 28.3246C26.5044 28.8609 26.791 29.496 26.791 30.2298ZM21 15.8347C21 16.5685 20.7135 17.2036 20.1404 17.7399C19.5674 18.2762 18.8888 18.5443 18.1046 18.5443C17.3204 18.5443 16.6418 18.2762 16.0687 17.7399C15.4956 17.2036 15.2091 16.5685 15.2091 15.8347C15.2091 15.1008 15.4806 14.4657 16.0235 13.9294C16.5664 13.3931 17.2601 13.125 18.1046 13.125C18.9491 13.125 19.6428 13.3931 20.1857 13.9294C20.7286 14.4657 21 15.1008 21 15.8347Z" fill="black"/>
</g>
<defs>
<clipPath id="clip0_361:105">
<rect width="42" height="42" fill="white"/>
</clipPath>
</defs>
</svg>
