<svg width="62" height="49" viewBox="0 0 62 49" fill="none" xmlns="http://www.w3.org/2000/svg">
<path d="M23.5393 16.8683L15.4225 32.1726H10.1267L6.13283 19.9573C5.89 19.206 5.68075 18.9303 4.94192 18.6139C3.73808 18.0973 1.74892 17.6135 0 17.3113L0.118833 16.8683H8.64383C9.20092 16.8678 9.73986 17.0248 10.1634 17.3108C10.5869 17.5969 10.8671 17.9931 10.9533 18.4281L13.0639 27.2848L18.2771 16.8683H23.5393ZM44.2912 27.1766C44.3119 23.1362 37.2233 22.9136 37.2723 21.1088C37.2878 20.5596 37.9492 19.9757 39.3958 19.8266C41.0912 19.6994 42.7987 19.9364 44.3377 20.5126L45.2161 17.2664C43.7177 16.8212 42.1307 16.5909 40.5299 16.5865C35.5777 16.5865 32.0928 18.669 32.0617 21.6478C32.0308 23.8508 34.5495 25.0778 36.4482 25.8128C38.4012 26.5621 39.0574 27.0439 39.0471 27.7136C39.0342 28.7426 37.4919 29.1938 36.0504 29.2122C33.5317 29.2428 32.0721 28.6752 30.9044 28.2465L29.9977 31.5989C31.1679 32.0235 33.3276 32.3951 35.5673 32.4115C40.8296 32.4115 44.2732 30.3575 44.2912 27.1766ZM57.3655 32.1726H62L57.9571 16.8683H53.6791C53.222 16.8649 52.7742 16.9702 52.3937 17.1704C52.0132 17.3706 51.7176 17.6566 51.5452 17.9912L44.0303 32.1726H49.29L50.3363 29.8859H56.7636L57.3655 32.1726ZM51.7777 26.7499L54.4127 21.0026L55.9317 26.7499H51.7777ZM30.6978 16.8683L26.5567 32.1726H21.545L25.6912 16.8683H30.6978Z" fill="black"/>
</svg>
