<svg width="42" height="42" viewBox="0 0 42 42" fill="none" xmlns="http://www.w3.org/2000/svg">
<path d="M15.75 12.25C10.5 12.25 8.75 17.5 8.75 21.875C8.75 27.125 12.25 35 15.75 35C17.654 34.9195 18.6883 34.125 21 34.125C23.296 34.125 23.625 35 26.25 35C28.875 35 33.25 29.75 33.25 26.25C33.201 26.2325 28.924 25.5448 28.875 21C28.8418 17.2025 33.103 15.8305 33.25 15.75C31.4597 13.139 28.0858 12.3148 27.125 12.25C24.6173 12.0558 22.1725 14 21 14C19.81 14 17.675 12.25 15.75 12.25Z" stroke="black" stroke-width="2" stroke-linecap="round" stroke-linejoin="round"/>
<path d="M21 7C21.9283 7 22.8185 6.63125 23.4749 5.97487C24.1313 5.3185 24.5 4.42826 24.5 3.5C23.5717 3.5 22.6815 3.86875 22.0251 4.52513C21.3687 5.1815 21 6.07174 21 7" stroke="black" stroke-width="2" stroke-linecap="round" stroke-linejoin="round"/>
</svg>
