<svg width="30" height="30" viewBox="0 0 30 30" fill="none" xmlns="http://www.w3.org/2000/svg">
<path d="M0 7.5C0 6.50544 0.395088 5.55161 1.09835 4.84835C1.80161 4.14509 2.75544 3.75 3.75 3.75H26.25C27.2446 3.75 28.1984 4.14509 28.9016 4.84835C29.6049 5.55161 30 6.50544 30 7.5V22.5C30 23.4946 29.6049 24.4484 28.9016 25.1516C28.1984 25.8549 27.2446 26.25 26.25 26.25H3.75C2.75544 26.25 1.80161 25.8549 1.09835 25.1516C0.395088 24.4484 0 23.4946 0 22.5V7.5ZM4.6875 9.375C4.43886 9.375 4.2004 9.47377 4.02459 9.64959C3.84877 9.8254 3.75 10.0639 3.75 10.3125V12.1875C3.75 12.4361 3.84877 12.6746 4.02459 12.8504C4.2004 13.0262 4.43886 13.125 4.6875 13.125H8.4375C8.68614 13.125 8.9246 13.0262 9.10041 12.8504C9.27623 12.6746 9.375 12.4361 9.375 12.1875V10.3125C9.375 10.0639 9.27623 9.8254 9.10041 9.64959C8.9246 9.47377 8.68614 9.375 8.4375 9.375H4.6875ZM4.6875 15C4.43886 15 4.2004 15.0988 4.02459 15.2746C3.84877 15.4504 3.75 15.6889 3.75 15.9375C3.75 16.1861 3.84877 16.4246 4.02459 16.6004C4.2004 16.7762 4.43886 16.875 4.6875 16.875H14.0625C14.3111 16.875 14.5496 16.7762 14.7254 16.6004C14.9012 16.4246 15 16.1861 15 15.9375C15 15.6889 14.9012 15.4504 14.7254 15.2746C14.5496 15.0988 14.3111 15 14.0625 15H4.6875ZM4.6875 18.75C4.43886 18.75 4.2004 18.8488 4.02459 19.0246C3.84877 19.2004 3.75 19.4389 3.75 19.6875C3.75 19.9361 3.84877 20.1746 4.02459 20.3504C4.2004 20.5262 4.43886 20.625 4.6875 20.625H6.5625C6.81114 20.625 7.0496 20.5262 7.22541 20.3504C7.40123 20.1746 7.5 19.9361 7.5 19.6875C7.5 19.4389 7.40123 19.2004 7.22541 19.0246C7.0496 18.8488 6.81114 18.75 6.5625 18.75H4.6875ZM10.3125 18.75C10.0639 18.75 9.8254 18.8488 9.64959 19.0246C9.47377 19.2004 9.375 19.4389 9.375 19.6875C9.375 19.9361 9.47377 20.1746 9.64959 20.3504C9.8254 20.5262 10.0639 20.625 10.3125 20.625H12.1875C12.4361 20.625 12.6746 20.5262 12.8504 20.3504C13.0262 20.1746 13.125 19.9361 13.125 19.6875C13.125 19.4389 13.0262 19.2004 12.8504 19.0246C12.6746 18.8488 12.4361 18.75 12.1875 18.75H10.3125ZM15.9375 18.75C15.6889 18.75 15.4504 18.8488 15.2746 19.0246C15.0988 19.2004 15 19.4389 15 19.6875C15 19.9361 15.0988 20.1746 15.2746 20.3504C15.4504 20.5262 15.6889 20.625 15.9375 20.625H17.8125C18.0611 20.625 18.2996 20.5262 18.4754 20.3504C18.6512 20.1746 18.75 19.9361 18.75 19.6875C18.75 19.4389 18.6512 19.2004 18.4754 19.0246C18.2996 18.8488 18.0611 18.75 17.8125 18.75H15.9375ZM21.5625 18.75C21.3139 18.75 21.0754 18.8488 20.8996 19.0246C20.7238 19.2004 20.625 19.4389 20.625 19.6875C20.625 19.9361 20.7238 20.1746 20.8996 20.3504C21.0754 20.5262 21.3139 20.625 21.5625 20.625H23.4375C23.6861 20.625 23.9246 20.5262 24.1004 20.3504C24.2762 20.1746 24.375 19.9361 24.375 19.6875C24.375 19.4389 24.2762 19.2004 24.1004 19.0246C23.9246 18.8488 23.6861 18.75 23.4375 18.75H21.5625Z" fill="black"/>
</svg>
