<svg width="42" height="42" viewBox="0 0 42 42" fill="none" xmlns="http://www.w3.org/2000/svg">
<g clip-path="url(#clip0_361:64)">
<path d="M28.875 2.625C29.5712 2.625 30.2389 2.90156 30.7312 3.39384C31.2234 3.88613 31.5 4.55381 31.5 5.25V36.75C31.5 37.4462 31.2234 38.1139 30.7312 38.6062C30.2389 39.0984 29.5712 39.375 28.875 39.375H13.125C12.4288 39.375 11.7611 39.0984 11.2688 38.6062C10.7766 38.1139 10.5 37.4462 10.5 36.75V5.25C10.5 4.55381 10.7766 3.88613 11.2688 3.39384C11.7611 2.90156 12.4288 2.625 13.125 2.625H28.875ZM13.125 0C11.7326 0 10.3973 0.553123 9.41269 1.53769C8.42812 2.52226 7.875 3.85761 7.875 5.25V36.75C7.875 38.1424 8.42812 39.4777 9.41269 40.4623C10.3973 41.4469 11.7326 42 13.125 42H28.875C30.2674 42 31.6027 41.4469 32.5873 40.4623C33.5719 39.4777 34.125 38.1424 34.125 36.75V5.25C34.125 3.85761 33.5719 2.52226 32.5873 1.53769C31.6027 0.553123 30.2674 0 28.875 0L13.125 0Z" fill="black"/>
<path d="M21 36.75C21.6962 36.75 22.3639 36.4734 22.8562 35.9812C23.3484 35.4889 23.625 34.8212 23.625 34.125C23.625 33.4288 23.3484 32.7611 22.8562 32.2688C22.3639 31.7766 21.6962 31.5 21 31.5C20.3038 31.5 19.6361 31.7766 19.1438 32.2688C18.6516 32.7611 18.375 33.4288 18.375 34.125C18.375 34.8212 18.6516 35.4889 19.1438 35.9812C19.6361 36.4734 20.3038 36.75 21 36.75Z" fill="black"/>
</g>
<defs>
<clipPath id="clip0_361:64">
<rect width="42" height="42" fill="white"/>
</clipPath>
</defs>
</svg>
