<svg width="42" height="42" viewBox="0 0 42 42" fill="none" xmlns="http://www.w3.org/2000/svg">
<g clip-path="url(#clip0_361:73)">
<path d="M2.625 10.5C2.625 9.80381 2.90156 9.13613 3.39384 8.64384C3.88613 8.15156 4.55381 7.875 5.25 7.875H36.75C37.4462 7.875 38.1139 8.15156 38.6062 8.64384C39.0984 9.13613 39.375 9.80381 39.375 10.5V31.5C39.375 32.1962 39.0984 32.8639 38.6062 33.3562C38.1139 33.8484 37.4462 34.125 36.75 34.125H5.25C4.55381 34.125 3.88613 33.8484 3.39384 33.3562C2.90156 32.8639 2.625 32.1962 2.625 31.5V10.5ZM0 31.5C0 32.8924 0.553123 34.2277 1.53769 35.2123C2.52226 36.1969 3.85761 36.75 5.25 36.75H36.75C38.1424 36.75 39.4777 36.1969 40.4623 35.2123C41.4469 34.2277 42 32.8924 42 31.5V10.5C42 9.10761 41.4469 7.77226 40.4623 6.78769C39.4777 5.80312 38.1424 5.25 36.75 5.25H5.25C3.85761 5.25 2.52226 5.80312 1.53769 6.78769C0.553123 7.77226 0 9.10761 0 10.5L0 31.5Z" fill="black"/>
<path d="M36.75 21C36.75 20.3038 36.4734 19.6361 35.9812 19.1438C35.4889 18.6516 34.8212 18.375 34.125 18.375C33.4288 18.375 32.7611 18.6516 32.2688 19.1438C31.7766 19.6361 31.5 20.3038 31.5 21C31.5 21.6962 31.7766 22.3639 32.2688 22.8562C32.7611 23.3484 33.4288 23.625 34.125 23.625C34.8212 23.625 35.4889 23.3484 35.9812 22.8562C36.4734 22.3639 36.75 21.6962 36.75 21Z" fill="black"/>
</g>
<defs>
<clipPath id="clip0_361:73">
<rect width="42" height="42" fill="white"/>
</clipPath>
</defs>
</svg>
