<svg width="20" height="20" viewBox="0 0 20 20" fill="none" xmlns="http://www.w3.org/2000/svg">
<path d="M4.18736 17.3125C4.15881 17.4347 4.15829 17.5618 4.18586 17.6843C4.21342 17.8067 4.26834 17.9214 4.34651 18.0196C4.42468 18.1178 4.52406 18.197 4.63721 18.2514C4.75036 18.3057 4.87434 18.3337 4.99986 18.3333C5.16447 18.3334 5.3254 18.2847 5.46236 18.1933L9.99986 15.1683L14.5374 18.1933C14.6793 18.2876 14.8467 18.3361 15.0171 18.3324C15.1874 18.3286 15.3525 18.2728 15.4902 18.1724C15.6279 18.0721 15.7315 17.9319 15.7872 17.7709C15.8428 17.6099 15.8478 17.4356 15.8015 17.2717L14.2774 11.9383L18.0574 8.53666C18.1784 8.42765 18.2649 8.28555 18.306 8.12792C18.3472 7.9703 18.3413 7.80406 18.2889 7.64978C18.2366 7.4955 18.1402 7.35993 18.0117 7.25985C17.8832 7.15977 17.7281 7.09956 17.5657 7.08666L12.8149 6.70833L10.759 2.1575C10.6936 2.01092 10.5871 1.88643 10.4524 1.79904C10.3177 1.71166 10.1607 1.66511 10.0001 1.66502C9.8396 1.66494 9.68247 1.71131 9.54771 1.79855C9.41296 1.88579 9.30633 2.01016 9.24069 2.15666L7.18486 6.70833L2.43403 7.08583C2.27441 7.09847 2.12181 7.15684 1.99449 7.25394C1.86717 7.35104 1.77052 7.48276 1.7161 7.63335C1.66169 7.78394 1.65181 7.94702 1.68765 8.10308C1.72349 8.25914 1.80353 8.40157 1.91819 8.51333L5.42986 11.9358L4.18736 17.3125ZM9.99986 4.52416L11.7015 8.29166L12.1915 8.33083H12.1924L15.5024 8.59333L12.7765 11.0467L12.7757 11.0483L12.3899 11.395L12.5324 11.8925V11.895L13.5765 15.5492L9.99986 13.165V4.52416Z" fill="#F9D245"/>
</svg>
