<svg width="20" height="20" viewBox="0 0 20 20" fill="none" xmlns="http://www.w3.org/2000/svg">
<path d="M18.289 7.64916C18.2366 7.49488 18.1402 7.35932 18.0117 7.25921C17.8831 7.1591 17.7281 7.09883 17.5657 7.08583L12.8149 6.70833L10.759 2.1575C10.6936 2.01092 10.5871 1.88643 10.4524 1.79904C10.3177 1.71166 10.1607 1.66511 10.0001 1.66502C9.8396 1.66494 9.68247 1.71131 9.54771 1.79855C9.41296 1.88579 9.30633 2.01016 9.24069 2.15666L7.18486 6.70833L2.43403 7.08583C2.27441 7.09847 2.12181 7.15684 1.99449 7.25394C1.86717 7.35104 1.77052 7.48276 1.7161 7.63335C1.66169 7.78394 1.65181 7.94702 1.68765 8.10308C1.72349 8.25914 1.80353 8.40157 1.91819 8.51333L5.42903 11.9358L4.18736 17.3125C4.14966 17.4752 4.16174 17.6456 4.22204 17.8014C4.28234 17.9572 4.38808 18.0912 4.52553 18.1862C4.66298 18.2811 4.82579 18.3326 4.99285 18.3339C5.1599 18.3351 5.32348 18.2862 5.46236 18.1933L9.99986 15.1683L14.5374 18.1933C14.6793 18.2876 14.8467 18.3361 15.0171 18.3324C15.1874 18.3286 15.3525 18.2728 15.4902 18.1724C15.6279 18.0721 15.7315 17.9319 15.7872 17.7709C15.8428 17.6099 15.8478 17.4356 15.8015 17.2717L14.2774 11.9383L18.0574 8.53666C18.3049 8.31333 18.3957 7.965 18.289 7.64916Z" fill="#F9D245"/>
</svg>
