<svg width="18" height="18" viewBox="0 0 18 18" fill="none" xmlns="http://www.w3.org/2000/svg">
<path d="M2.11049 11.6L1.16049 15.7C1.12772 15.8499 1.12884 16.0052 1.16378 16.1546C1.19872 16.304 1.26658 16.4437 1.36242 16.5635C1.45826 16.6833 1.57966 16.7801 1.71773 16.847C1.85581 16.9139 2.00708 16.9491 2.16049 16.95C2.23198 16.9572 2.30401 16.9572 2.37549 16.95L6.50049 16L14.4205 8.11L10.0005 3.7L2.11049 11.6Z" fill="#148F28"/>
<path d="M16.9104 4.16L13.9604 1.21C13.7664 1.01703 13.5039 0.908707 13.2304 0.908707C12.9568 0.908707 12.6943 1.01703 12.5004 1.21L10.8604 2.85L15.2754 7.265L16.9154 5.625C17.0113 5.52854 17.0873 5.4141 17.139 5.28823C17.1907 5.16236 17.2171 5.02754 17.2166 4.89146C17.2162 4.75539 17.1889 4.62075 17.1363 4.49523C17.0838 4.36972 17.007 4.2558 16.9104 4.16Z" fill="#148F28"/>
</svg>
