<svg width="26" height="26" viewBox="0 0 26 26" fill="none" xmlns="http://www.w3.org/2000/svg">
<path d="M22.1 10.4H23.4V24.7H2.60001V10.4H3.90001V7.79999C3.90001 4.21199 6.81201 1.29999 10.4 1.29999C11.323 1.29999 12.207 1.49499 13 1.84599C13.8191 1.48476 14.7048 1.29878 15.6 1.29999C19.188 1.29999 22.1 4.21199 22.1 7.79999V10.4ZM6.50001 7.79999V10.4H9.10001V7.79999C9.10001 6.33099 9.60701 4.99199 10.426 3.89999H10.4C8.25501 3.89999 6.50001 5.65499 6.50001 7.79999ZM19.5 10.4V7.79999C19.5 5.65499 17.745 3.89999 15.6 3.89999H15.574C16.4288 5.02095 16.8944 6.3903 16.9 7.79999V10.4H19.5ZM13 4.91399C12.207 5.62899 11.7 6.65599 11.7 7.79999V10.4H14.3V7.79999C14.3 6.65599 13.793 5.62899 13 4.91399Z" fill="white"/>
</svg>
