<svg width="23" height="18" viewBox="0 0 23 18" fill="none" xmlns="http://www.w3.org/2000/svg">
<path d="M21.85 1.125H1.15C0.514984 1.125 0 1.62879 0 2.25V15.75C0 16.3712 0.514984 16.875 1.15 16.875H21.85C22.485 16.875 23 16.3712 23 15.75V2.25C23 1.62879 22.485 1.125 21.85 1.125ZM6.325 11.527V12.0938C6.325 12.2491 6.19634 12.375 6.0375 12.375H5.4625C5.30366 12.375 5.175 12.2491 5.175 12.0938V11.5211C4.76927 11.5007 4.37467 11.3621 4.04764 11.122C3.90748 11.019 3.9003 10.8137 4.02716 10.6952L4.44942 10.3011C4.54897 10.2083 4.69703 10.2041 4.81347 10.2755C4.95255 10.3605 5.11031 10.4062 5.27419 10.4062H6.28439C6.51798 10.4062 6.70845 10.1981 6.70845 9.94254C6.70845 9.73336 6.57872 9.54914 6.39328 9.495L4.77609 9.02039C4.10802 8.82422 3.64119 8.19703 3.64119 7.49496C3.64119 6.63293 4.3258 5.93262 5.17464 5.91047V5.34375C5.17464 5.18836 5.3033 5.0625 5.46214 5.0625H6.03714C6.19598 5.0625 6.32464 5.18836 6.32464 5.34375V5.91645C6.73038 5.93684 7.12497 6.075 7.452 6.31547C7.59216 6.41848 7.59934 6.62379 7.47248 6.74227L7.05022 7.13637C6.95067 7.22918 6.80261 7.2334 6.68617 7.16203C6.54709 7.0766 6.38933 7.03125 6.22545 7.03125H5.21525C4.98166 7.03125 4.79119 7.23938 4.79119 7.49496C4.79119 7.70414 4.92092 7.88836 5.10636 7.9425L6.72355 8.41711C7.39162 8.61328 7.85845 9.24047 7.85845 9.94254C7.85845 10.8049 7.17384 11.5049 6.325 11.527ZM14.95 10.9688C14.95 11.1241 14.8213 11.25 14.6625 11.25H10.6375C10.4787 11.25 10.35 11.1241 10.35 10.9688V10.4062C10.35 10.2509 10.4787 10.125 10.6375 10.125H14.6625C14.8213 10.125 14.95 10.2509 14.95 10.4062V10.9688ZM20.7 10.9688C20.7 11.1241 20.5713 11.25 20.4125 11.25H17.5375C17.3787 11.25 17.25 11.1241 17.25 10.9688V10.4062C17.25 10.2509 17.3787 10.125 17.5375 10.125H20.4125C20.5713 10.125 20.7 10.2509 20.7 10.4062V10.9688ZM20.7 7.59375C20.7 7.74914 20.5713 7.875 20.4125 7.875H10.6375C10.4787 7.875 10.35 7.74914 10.35 7.59375V7.03125C10.35 6.87586 10.4787 6.75 10.6375 6.75H20.4125C20.5713 6.75 20.7 6.87586 20.7 7.03125V7.59375Z" fill="white"/>
</svg>
