<svg width="21" height="29" viewBox="0 0 21 29" fill="none" xmlns="http://www.w3.org/2000/svg">
<path d="M18.375 3.625H14C14 1.62559 12.4305 0 10.5 0C8.56953 0 7 1.62559 7 3.625H2.625C1.17578 3.625 0 4.84277 0 6.34375V26.2812C0 27.7822 1.17578 29 2.625 29H18.375C19.8242 29 21 27.7822 21 26.2812V6.34375C21 4.84277 19.8242 3.625 18.375 3.625ZM5.25 24.0156C4.52266 24.0156 3.9375 23.4096 3.9375 22.6562C3.9375 21.9029 4.52266 21.2969 5.25 21.2969C5.97734 21.2969 6.5625 21.9029 6.5625 22.6562C6.5625 23.4096 5.97734 24.0156 5.25 24.0156ZM5.25 18.5781C4.52266 18.5781 3.9375 17.9721 3.9375 17.2188C3.9375 16.4654 4.52266 15.8594 5.25 15.8594C5.97734 15.8594 6.5625 16.4654 6.5625 17.2188C6.5625 17.9721 5.97734 18.5781 5.25 18.5781ZM5.25 13.1406C4.52266 13.1406 3.9375 12.5346 3.9375 11.7812C3.9375 11.0279 4.52266 10.4219 5.25 10.4219C5.97734 10.4219 6.5625 11.0279 6.5625 11.7812C6.5625 12.5346 5.97734 13.1406 5.25 13.1406ZM10.5 2.26562C11.2273 2.26562 11.8125 2.87168 11.8125 3.625C11.8125 4.37832 11.2273 4.98438 10.5 4.98438C9.77266 4.98438 9.1875 4.37832 9.1875 3.625C9.1875 2.87168 9.77266 2.26562 10.5 2.26562ZM17.5 23.1094C17.5 23.3586 17.3031 23.5625 17.0625 23.5625H9.1875C8.94687 23.5625 8.75 23.3586 8.75 23.1094V22.2031C8.75 21.9539 8.94687 21.75 9.1875 21.75H17.0625C17.3031 21.75 17.5 21.9539 17.5 22.2031V23.1094ZM17.5 17.6719C17.5 17.9211 17.3031 18.125 17.0625 18.125H9.1875C8.94687 18.125 8.75 17.9211 8.75 17.6719V16.7656C8.75 16.5164 8.94687 16.3125 9.1875 16.3125H17.0625C17.3031 16.3125 17.5 16.5164 17.5 16.7656V17.6719ZM17.5 12.2344C17.5 12.4836 17.3031 12.6875 17.0625 12.6875H9.1875C8.94687 12.6875 8.75 12.4836 8.75 12.2344V11.3281C8.75 11.0789 8.94687 10.875 9.1875 10.875H17.0625C17.3031 10.875 17.5 11.0789 17.5 11.3281V12.2344Z" fill="white"/>
</svg>
