<svg width="36" height="36" viewBox="0 0 36 36" fill="none" xmlns="http://www.w3.org/2000/svg">
<path d="M30.744 8.4405C31.4035 8.67229 31.9748 9.10316 32.379 9.67361C32.7831 10.2441 33.0001 10.9259 33 11.625V26.625C33 28.3158 32.3284 29.9373 31.1328 31.1328C29.9373 32.3284 28.3158 33 26.625 33H11.625C10.9259 33.0001 10.2441 32.7831 9.67361 32.379C9.10316 31.9748 8.67229 31.4035 8.4405 30.744L11.586 30.75H26.625C27.719 30.75 28.7682 30.3154 29.5418 29.5418C30.3154 28.7682 30.75 27.719 30.75 26.625V11.625L30.744 11.5485V8.4405ZM25.869 3C26.7641 3 27.6226 3.35558 28.2555 3.98851C28.8884 4.62145 29.244 5.47989 29.244 6.375V25.8705C29.244 26.7656 28.8884 27.6241 28.2555 28.257C27.6226 28.8899 26.7641 29.2455 25.869 29.2455H6.375C5.47989 29.2455 4.62145 28.8899 3.98851 28.257C3.35558 27.6241 3 26.7656 3 25.8705V6.375C3 5.47989 3.35558 4.62145 3.98851 3.98851C4.62145 3.35558 5.47989 3 6.375 3H25.8705H25.869Z" fill="white"/>
</svg>
