<svg width="32" height="32" viewBox="0 0 32 32" fill="none" xmlns="http://www.w3.org/2000/svg">
<path d="M10.667 14.6667C10.3134 14.6667 9.97423 14.8071 9.72418 15.0572C9.47413 15.3072 9.33366 15.6464 9.33366 16C9.33366 16.3536 9.47413 16.6928 9.72418 16.9428C9.97423 17.1929 10.3134 17.3333 10.667 17.3333H21.3337C21.6873 17.3333 22.0264 17.1929 22.2765 16.9428C22.5265 16.6928 22.667 16.3536 22.667 16C22.667 15.6464 22.5265 15.3072 22.2765 15.0572C22.0264 14.8071 21.6873 14.6667 21.3337 14.6667H10.667ZM16.0003 2.66666C12.4641 2.66666 9.07272 4.07142 6.57224 6.57191C4.07175 9.07239 2.66699 12.4638 2.66699 16C2.66699 19.5362 4.07175 22.9276 6.57224 25.4281C9.07272 27.9286 12.4641 29.3333 16.0003 29.3333C19.5365 29.3333 22.9279 27.9286 25.4284 25.4281C27.9289 22.9276 29.3337 19.5362 29.3337 16C29.3337 12.4638 27.9289 9.07239 25.4284 6.57191C22.9279 4.07142 19.5365 2.66666 16.0003 2.66666ZM5.33366 16C5.33366 13.171 6.45747 10.4579 8.45785 8.45753C10.4582 6.45714 13.1713 5.33333 16.0003 5.33333C18.8293 5.33333 21.5424 6.45714 23.5428 8.45753C25.5432 10.4579 26.667 13.171 26.667 16C26.667 18.829 25.5432 21.5421 23.5428 23.5425C21.5424 25.5429 18.8293 26.6667 16.0003 26.6667C13.1713 26.6667 10.4582 25.5429 8.45785 23.5425C6.45747 21.5421 5.33366 18.829 5.33366 16Z" fill="#512B58"/>
</svg>
