<svg width="42" height="42" viewBox="0 0 42 42" fill="none" xmlns="http://www.w3.org/2000/svg">
<path d="M35.868 9.84725C36.6375 10.1177 37.304 10.6204 37.7754 11.2859C38.2469 11.9514 38.5001 12.7469 38.5 13.5625V31.0625C38.5 33.035 37.7164 34.9268 36.3216 36.3216C34.9268 37.7164 33.035 38.5 31.0625 38.5H13.5625C12.7469 38.5001 11.9514 38.2469 11.2859 37.7754C10.6204 37.304 10.1177 36.6375 9.84725 35.868L13.517 35.875H31.0625C32.3389 35.875 33.5629 35.368 34.4655 34.4655C35.368 33.5629 35.875 32.3389 35.875 31.0625V13.5625L35.868 13.4732V9.84725ZM30.1805 3.5C31.2248 3.5 32.2263 3.91484 32.9647 4.65327C33.7032 5.39169 34.118 6.39321 34.118 7.4375V30.1822C34.118 31.2265 33.7032 32.2281 32.9647 32.9665C32.2263 33.7049 31.2248 34.1197 30.1805 34.1197H7.4375C6.39321 34.1197 5.39169 33.7049 4.65327 32.9665C3.91484 32.2281 3.5 31.2265 3.5 30.1822V7.4375C3.5 6.39321 3.91484 5.39169 4.65327 4.65327C5.39169 3.91484 6.39321 3.5 7.4375 3.5H30.1822H30.1805ZM30.1805 6.125H7.4375C7.0894 6.125 6.75556 6.26328 6.50942 6.50942C6.26328 6.75556 6.125 7.0894 6.125 7.4375V30.1822C6.125 30.9067 6.713 31.4947 7.4375 31.4947H30.1822C30.5303 31.4947 30.8642 31.3565 31.1103 31.1103C31.3565 30.8642 31.4947 30.5303 31.4947 30.1822V7.4375C31.4947 7.0894 31.3565 6.75556 31.1103 6.50942C30.8642 6.26328 30.5303 6.125 30.1822 6.125H30.1805Z" fill="black"/>
</svg>
