<svg width="36" height="36" viewBox="0 0 36 36" fill="none" xmlns="http://www.w3.org/2000/svg">
<path d="M33 11.625C33 10.531 32.5654 9.48177 31.7918 8.70818C31.0182 7.9346 29.969 7.5 28.875 7.5H7.125C6.03098 7.5 4.98177 7.9346 4.20818 8.70818C3.4346 9.48177 3 10.531 3 11.625V14.25H33V11.625Z" fill="black"/>
<path d="M33 16.5H3V24.375C3 25.469 3.4346 26.5182 4.20818 27.2918C4.98177 28.0654 6.03098 28.5 7.125 28.5H28.875C29.969 28.5 31.0182 28.0654 31.7918 27.2918C32.5654 26.5182 33 25.469 33 24.375V16.5ZM12.375 21.75C12.6734 21.75 12.9595 21.8685 13.1705 22.0795C13.3815 22.2905 13.5 22.5766 13.5 22.875C13.5 23.1734 13.3815 23.4595 13.1705 23.6705C12.9595 23.8815 12.6734 24 12.375 24H8.625C8.32663 24 8.04048 23.8815 7.8295 23.6705C7.61853 23.4595 7.5 23.1734 7.5 22.875C7.5 22.5766 7.61853 22.2905 7.8295 22.0795C8.04048 21.8685 8.32663 21.75 8.625 21.75H12.375Z" fill="black"/>
</svg>
