<svg width="42" height="42" viewBox="0 0 42 42" fill="none" xmlns="http://www.w3.org/2000/svg">
<path d="M38.5 21V33.25C38.5001 34.5891 37.9884 35.8777 37.0698 36.852C36.1511 37.8263 34.8948 38.4127 33.558 38.4913L33.25 38.5H28C27.5714 38.4999 27.1577 38.3426 26.8373 38.0577C26.517 37.7729 26.3124 37.3804 26.2622 36.9548L26.25 36.75V26.25C26.2501 25.8214 26.4074 25.4077 26.6923 25.0873C26.9771 24.767 27.3696 24.5624 27.7952 24.5122L28 24.5H35.875V21C35.875 17.0549 34.3078 13.2714 31.5182 10.4818C28.7286 7.69218 24.9451 6.125 21 6.125C17.0549 6.125 13.2714 7.69218 10.4818 10.4818C7.69218 13.2714 6.125 17.0549 6.125 21V24.5H14C14.4641 24.5 14.9092 24.6844 15.2374 25.0126C15.5656 25.3408 15.75 25.7859 15.75 26.25V36.75C15.75 37.2141 15.5656 37.6592 15.2374 37.9874C14.9092 38.3156 14.4641 38.5 14 38.5H8.75C7.35761 38.5 6.02226 37.9469 5.03769 36.9623C4.05312 35.9777 3.5 34.6424 3.5 33.25V21C3.5 11.3348 11.3348 3.5 21 3.5C30.6652 3.5 38.5 11.3348 38.5 21V33.25V21ZM13.125 27.125H6.125V33.25C6.125 33.9462 6.40156 34.6139 6.89384 35.1062C7.38613 35.5984 8.05381 35.875 8.75 35.875H13.125V27.125ZM35.875 27.125H28.875V35.875H33.25C33.9023 35.875 34.5312 35.6322 35.0142 35.1938C35.4972 34.7555 35.7997 34.153 35.8628 33.5037L35.875 33.25V27.125Z" fill="black"/>
</svg>
