<svg width="62" height="62" viewBox="0 0 62 62" fill="none" xmlns="http://www.w3.org/2000/svg">
<path fill-rule="evenodd" clip-rule="evenodd" d="M2.58301 12.9167C2.58301 10.1761 3.6717 7.54777 5.60957 5.60989C7.54745 3.67202 10.1758 2.58333 12.9163 2.58333H49.083C51.8236 2.58333 54.4519 3.67202 56.3898 5.60989C58.3277 7.54777 59.4163 10.1761 59.4163 12.9167V49.0833C59.4163 51.8239 58.3277 54.4522 56.3898 56.3901C54.4519 58.328 51.8236 59.4167 49.083 59.4167H12.9163C10.1758 59.4167 7.54745 58.328 5.60957 56.3901C3.6717 54.4522 2.58301 51.8239 2.58301 49.0833V12.9167ZM12.9163 7.74999H49.083C50.4533 7.74999 51.7675 8.29434 52.7364 9.26328C53.7053 10.2322 54.2497 11.5464 54.2497 12.9167V49.0833C54.2497 50.4536 53.7053 51.7678 52.7364 52.7367C51.7675 53.7056 50.4533 54.25 49.083 54.25H12.9163C11.5461 54.25 10.2319 53.7056 9.26296 52.7367C8.29402 51.7678 7.74967 50.4536 7.74967 49.0833V12.9167C7.74967 11.5464 8.29402 10.2322 9.26296 9.26328C10.2319 8.29434 11.5461 7.74999 12.9163 7.74999V7.74999Z" fill="#148F28"/>
</svg>
