<svg width="78" height="78" viewBox="0 0 78 78" fill="none" xmlns="http://www.w3.org/2000/svg">
<path d="M58.5 61.75H19.5C17.7125 61.75 16.25 60.2875 16.25 58.5V19.5C16.25 17.7125 17.7125 16.25 19.5 16.25H58.5C60.2875 16.25 61.75 17.7125 61.75 19.5V58.5C61.75 60.2875 60.2875 61.75 58.5 61.75ZM61.75 9.75H16.25C12.675 9.75 9.75 12.675 9.75 16.25V61.75C9.75 65.325 12.675 68.25 16.25 68.25H61.75C65.325 68.25 68.25 65.325 68.25 61.75V16.25C68.25 12.675 65.325 9.75 61.75 9.75Z" fill="#148F28"/>
</svg>
