<svg width="43" height="43" viewBox="0 0 43 43" fill="none" xmlns="http://www.w3.org/2000/svg">
<path d="M8.95837 8.95832C8.95837 9.94374 9.76462 10.75 10.75 10.75H32.25C33.2355 10.75 34.0417 9.94374 34.0417 8.95832C34.0417 7.97291 33.2355 7.16666 32.25 7.16666H10.75C9.76462 7.16666 8.95837 7.97291 8.95837 8.95832ZM13.2763 25.0833H16.125V34.0417C16.125 35.0271 16.9313 35.8333 17.9167 35.8333H25.0834C26.0688 35.8333 26.875 35.0271 26.875 34.0417V25.0833H29.7238C31.3184 25.0833 32.1246 23.1483 30.9959 22.0196L22.7721 13.7958C22.6064 13.6297 22.4095 13.498 22.1927 13.408C21.976 13.3181 21.7437 13.2719 21.509 13.2719C21.2743 13.2719 21.042 13.3181 20.8253 13.408C20.6085 13.498 20.4116 13.6297 20.2459 13.7958L12.0221 22.0196C10.8934 23.1483 11.6817 25.0833 13.2763 25.0833Z" fill="white"/>
</svg>
