<svg width="36" height="37" viewBox="0 0 36 37" fill="none" xmlns="http://www.w3.org/2000/svg">
<g clip-path="url(#clip0_361:593)">
<path d="M18 0.954346C13.1152 0.954346 12.501 0.976558 10.5817 1.06096C8.6625 1.14981 7.35525 1.44745 6.21 1.88725C5.00871 2.33331 3.92061 3.03301 3.02175 3.93743C2.10617 4.82523 1.39749 5.89928 0.945 7.08488C0.4995 8.21325 0.19575 9.50599 0.108 11.394C0.0225 13.2931 0 13.8973 0 18.7262C0 23.5507 0.0225 24.1549 0.108 26.0495C0.198 27.942 0.4995 29.2325 0.945 30.3631C1.40625 31.5315 2.0205 32.5221 3.02175 33.5106C4.02075 34.499 5.02425 35.1076 6.20775 35.5607C7.35525 36.0005 8.66025 36.3004 10.5773 36.387C12.4988 36.4714 13.1108 36.4937 18 36.4937C22.8892 36.4937 23.499 36.4714 25.4205 36.387C27.3353 36.2982 28.647 36.0005 29.7922 35.5607C30.9928 35.1145 32.0801 34.4148 32.9782 33.5106C33.9795 32.5221 34.5938 31.5315 35.055 30.3631C35.4982 29.2325 35.802 27.942 35.892 26.0495C35.9775 24.1549 36 23.5507 36 18.724C36 13.8973 35.9775 13.2931 35.892 11.3962C35.802 9.50599 35.4982 8.21325 35.055 7.08488C34.6026 5.89925 33.8939 4.82519 32.9782 3.93743C32.0797 3.03267 30.9915 2.33293 29.79 1.88725C28.6425 1.44745 27.333 1.14759 25.4182 1.06096C23.4967 0.976558 22.887 0.954346 17.9955 0.954346H18.0023H18ZM16.3867 4.15733H18.0023C22.8083 4.15733 23.3775 4.17287 25.2743 4.2595C27.0292 4.33724 27.9832 4.62822 28.6178 4.87033C29.457 5.19241 30.0578 5.5789 30.6877 6.20084C31.3177 6.82277 31.707 7.41361 32.0333 8.24435C32.2808 8.86851 32.5732 9.8103 32.652 11.5428C32.7397 13.4153 32.7578 13.9773 32.7578 18.7196C32.7578 23.4618 32.7397 24.026 32.652 25.8985C32.5732 27.631 32.2785 28.5706 32.0333 29.197C31.7447 29.9685 31.2841 30.6662 30.6855 31.2383C30.0555 31.8602 29.457 32.2445 28.6155 32.5666C27.9855 32.8109 27.0315 33.0996 25.2743 33.1796C23.3775 33.264 22.8083 33.284 18.0023 33.284C13.1963 33.284 12.6248 33.264 10.728 33.1796C8.973 33.0996 8.02125 32.8109 7.38675 32.5666C6.60487 32.2821 5.89753 31.8282 5.31675 31.2383C4.71769 30.6653 4.25638 29.967 3.96675 29.1948C3.7215 28.5706 3.42675 27.6288 3.348 25.8963C3.2625 24.0238 3.2445 23.4618 3.2445 18.7151C3.2445 13.9706 3.2625 13.4109 3.348 11.5384C3.429 9.80585 3.7215 8.86406 3.969 8.23768C4.29525 7.40917 4.68675 6.81611 5.31675 6.19417C5.94675 5.57223 6.54525 5.18797 7.38675 4.86589C8.02125 4.62156 8.973 4.3328 10.728 4.25284C12.3885 4.17732 13.032 4.1551 16.3867 4.15288V4.15733ZM27.6097 7.10709C27.3261 7.10709 27.0452 7.16224 26.7832 7.2694C26.5211 7.37657 26.283 7.53363 26.0824 7.73164C25.8818 7.92965 25.7227 8.16472 25.6142 8.42343C25.5056 8.68214 25.4497 8.95942 25.4497 9.23945C25.4497 9.51947 25.5056 9.79675 25.6142 10.0555C25.7227 10.3142 25.8818 10.5492 26.0824 10.7473C26.283 10.9453 26.5211 11.1023 26.7832 11.2095C27.0452 11.3166 27.3261 11.3718 27.6097 11.3718C28.1826 11.3718 28.732 11.1471 29.1371 10.7473C29.5422 10.3474 29.7698 9.80498 29.7698 9.23945C29.7698 8.67391 29.5422 8.13154 29.1371 7.73164C28.732 7.33175 28.1826 7.10709 27.6097 7.10709ZM18.0023 9.59928C16.7762 9.5804 15.5585 9.80249 14.4202 10.2526C13.2819 10.7028 12.2457 11.372 11.3718 12.2212C10.498 13.0705 9.80407 14.0829 9.33039 15.1995C8.85672 16.3161 8.61278 17.5146 8.61278 18.7251C8.61278 19.9357 8.85672 21.1341 9.33039 22.2507C9.80407 23.3673 10.498 24.3797 11.3718 25.229C12.2457 26.0783 13.2819 26.7474 14.4202 27.1976C15.5585 27.6477 16.7762 27.8698 18.0023 27.8509C20.429 27.8136 22.7435 26.8357 24.4462 25.1283C26.1489 23.4209 27.1033 21.1211 27.1033 18.7251C27.1033 16.3292 26.1489 14.0293 24.4462 12.3219C22.7435 10.6146 20.429 9.63666 18.0023 9.59928ZM18.0023 12.8C19.5937 12.8 21.1201 13.4242 22.2454 14.5351C23.3708 15.6461 24.003 17.1529 24.003 18.724C24.003 20.2951 23.3708 21.8019 22.2454 22.9129C21.1201 24.0238 19.5937 24.648 18.0023 24.648C16.4108 24.648 14.8844 24.0238 13.7591 22.9129C12.6337 21.8019 12.0015 20.2951 12.0015 18.724C12.0015 17.1529 12.6337 15.6461 13.7591 14.5351C14.8844 13.4242 16.4108 12.8 18.0023 12.8Z" fill="white"/>
</g>
<defs>
<clipPath id="clip0_361:593">
<rect width="36" height="35.5393" fill="white" transform="translate(0 0.954346)"/>
</clipPath>
</defs>
</svg>
