<svg width="36" height="37" viewBox="0 0 36 37" fill="none" xmlns="http://www.w3.org/2000/svg">
<g clip-path="url(#clip0_361:595)">
<path d="M0 3.49985C0 2.09382 1.1835 0.954346 2.64375 0.954346H33.3563C34.8165 0.954346 36 2.09382 36 3.49985V33.9482C36 35.3542 34.8165 36.4937 33.3563 36.4937H2.64375C1.1835 36.4937 0 35.3542 0 33.9482V3.49985ZM11.1217 30.7052V14.657H5.7195V30.7052H11.1217ZM8.42175 12.4646C10.305 12.4646 11.4772 11.2341 11.4772 9.69257C11.4435 8.11774 10.3073 6.92051 8.45775 6.92051C6.60825 6.92051 5.4 8.11996 5.4 9.69257C5.4 11.2341 6.57225 12.4646 8.38575 12.4646H8.42175ZM19.4648 30.7052V21.7426C19.4648 21.2628 19.5007 20.7831 19.6448 20.441C20.034 19.4837 20.9228 18.4908 22.4167 18.4908C24.372 18.4908 25.1528 19.9612 25.1528 22.1202V30.7052H30.555V21.5005C30.555 16.5694 27.891 14.2771 24.336 14.2771C21.4695 14.2771 20.1847 15.832 19.4648 16.927V16.9826H19.4288C19.4407 16.964 19.4527 16.9455 19.4648 16.927V14.657H14.0647C14.1322 16.1629 14.0647 30.7052 14.0647 30.7052H19.4648Z" fill="white"/>
</g>
<defs>
<clipPath id="clip0_361:595">
<rect width="36" height="35.5393" fill="white" transform="translate(0 0.954346)"/>
</clipPath>
</defs>
</svg>
