<svg width="63" height="49" viewBox="0 0 63 49" fill="none" xmlns="http://www.w3.org/2000/svg">
<g clip-path="url(#clip0_418:972)">
<path d="M11.4567 48.7565V45.5134C11.4567 44.2699 10.7003 43.4593 9.40389 43.4593C8.75579 43.4593 8.05357 43.6755 7.56738 44.3782C7.18945 43.7836 6.64937 43.4593 5.83913 43.4593C5.29881 43.4593 4.75898 43.6213 4.32667 44.216V43.5674H3.19238V48.7565H4.32667V45.8916C4.32667 44.9729 4.81286 44.5403 5.56922 44.5403C6.32508 44.5403 6.7035 45.0268 6.7035 45.8916V48.7565H7.83779V45.8916C7.83779 44.9729 8.37762 44.5403 9.07984 44.5403C9.8362 44.5403 10.2141 45.0268 10.2141 45.8916V48.7565H11.4567ZM28.2547 43.5674H26.4184V41.9999H25.2841V43.5674H24.2579V44.5942H25.2839V46.9728C25.2839 48.1621 25.7701 48.8646 27.0665 48.8646C27.5527 48.8646 28.0925 48.7026 28.471 48.4864L28.1467 47.5133C27.8226 47.7294 27.4447 47.7836 27.1745 47.7836C26.6344 47.7836 26.4184 47.4593 26.4184 46.9186V44.5942H28.2547V43.5674ZM37.8693 43.4591C37.2212 43.4591 36.7891 43.7836 36.519 44.216V43.5674H35.3847V48.7565H36.519V45.8377C36.519 44.9729 36.8969 44.4863 37.5991 44.4863C37.8152 44.4863 38.0853 44.5405 38.3013 44.5944L38.6254 43.5135C38.4094 43.4593 38.0853 43.4593 37.8693 43.4593V43.4591ZM23.3396 43.9998C22.7993 43.6213 22.0432 43.4593 21.2329 43.4593C19.9367 43.4593 19.0726 44.1079 19.0726 45.1349C19.0726 45.9999 19.7207 46.4862 20.855 46.6485L21.3951 46.7027C21.9893 46.8105 22.3133 46.9728 22.3133 47.2431C22.3133 47.6214 21.8813 47.8917 21.1249 47.8917C20.3688 47.8917 19.7746 47.6214 19.3964 47.3512L18.8563 48.216C19.4506 48.6484 20.2608 48.8646 21.0708 48.8646C22.5833 48.8646 23.4476 48.1621 23.4476 47.189C23.4476 46.27 22.7454 45.7835 21.665 45.6215L21.1249 45.5673C20.6387 45.5131 20.2608 45.4053 20.2608 45.081C20.2608 44.7025 20.6387 44.4863 21.2329 44.4863C21.8813 44.4863 22.5294 44.7565 22.8534 44.9187L23.3396 43.9998ZM53.4794 43.4593C52.831 43.4593 52.399 43.7836 52.1288 44.216V43.5674H50.9945V48.7565H52.1288V45.8377C52.1288 44.9729 52.507 44.4863 53.209 44.4863C53.4252 44.4863 53.6954 44.5405 53.9114 44.5944L54.2355 43.5135C54.0194 43.4593 53.6954 43.4593 53.4794 43.4593ZM39.0036 46.1619C39.0036 47.7294 40.0837 48.8646 41.7583 48.8646C42.5144 48.8646 43.0545 48.7026 43.5946 48.2702L43.0545 47.3512C42.6225 47.6755 42.1904 47.8375 41.7042 47.8375C40.7859 47.8375 40.1379 47.189 40.1379 46.1619C40.1379 45.1891 40.7859 44.5403 41.7042 44.4863C42.1904 44.4863 42.6225 44.6484 43.0545 44.9729L43.5946 44.054C43.0545 43.6213 42.5144 43.4593 41.7583 43.4593C40.0837 43.4593 39.0036 44.5944 39.0036 46.1619ZM49.4823 46.1619V43.5674H48.348V44.216C47.9698 43.7297 47.4298 43.4593 46.7275 43.4593C45.2692 43.4593 44.1349 44.5944 44.1349 46.1619C44.1349 47.7294 45.2692 48.8646 46.7275 48.8646C47.4836 48.8646 48.024 48.5945 48.348 48.1079V48.7565H49.4823V46.1619ZM45.3231 46.1619C45.3231 45.243 45.9173 44.4863 46.8894 44.4863C47.8077 44.4863 48.456 45.1891 48.456 46.1619C48.456 47.0809 47.8077 47.8375 46.8894 47.8375C45.9173 47.7834 45.3231 47.0809 45.3231 46.1619ZM31.7658 43.4593C30.2533 43.4593 29.1729 44.5403 29.1729 46.1619C29.1729 47.7836 30.2531 48.8646 31.8197 48.8646C32.5758 48.8646 33.3321 48.6484 33.9264 48.1621L33.386 47.3512C32.954 47.6755 32.4139 47.8917 31.8738 47.8917C31.1716 47.8917 30.4694 47.5674 30.3072 46.6482H34.1424V46.2161C34.1965 44.5403 33.2241 43.4593 31.7656 43.4593H31.7658ZM31.7658 44.4322C32.4678 44.4322 32.9542 44.8648 33.062 45.6756H30.3613C30.4694 44.9729 30.9556 44.4322 31.7658 44.4322ZM59.9069 46.1619V41.5133H58.7726V44.216C58.3944 43.7297 57.8544 43.4593 57.1521 43.4593C55.6938 43.4593 54.5595 44.5944 54.5595 46.1619C54.5595 47.7294 55.6938 48.8646 57.1521 48.8646C57.9085 48.8646 58.4486 48.5945 58.7726 48.1079V48.7565H59.9069V46.1619ZM55.7479 46.1619C55.7479 45.243 56.3419 44.4863 57.3143 44.4863C58.2325 44.4863 58.8806 45.1891 58.8806 46.1619C58.8806 47.0809 58.2325 47.8375 57.3143 47.8375C56.3419 47.7834 55.7479 47.0809 55.7479 46.1619ZM17.8301 46.1619V43.5674H16.6958V44.216C16.3176 43.7297 15.7775 43.4593 15.0753 43.4593C13.617 43.4593 12.4827 44.5944 12.4827 46.1619C12.4827 47.7294 13.617 48.8646 15.0753 48.8646C15.8317 48.8646 16.3717 48.5945 16.6958 48.1079V48.7565H17.8301V46.1619ZM13.617 46.1619C13.617 45.243 14.2112 44.4863 15.1833 44.4863C16.1016 44.4863 16.7499 45.1891 16.7499 46.1619C16.7499 47.0809 16.1016 47.8375 15.1833 47.8375C14.2112 47.7834 13.617 47.0809 13.617 46.1619Z" fill="black"/>
<path d="M22.9619 4.16204H39.9762V34.7565H22.9619V4.16204Z" fill="#FF5F00"/>
<path d="M24.0412 19.4594C24.0412 13.2433 26.9578 7.72969 31.4408 4.16205C28.1462 1.56751 23.9873 0 19.4501 0C8.70099 0 0.00488281 8.70255 0.00488281 19.4594C0.00488281 30.216 8.70099 38.9188 19.4499 38.9188C23.987 38.9188 28.146 37.3513 31.4408 34.7565C26.9578 31.243 24.0412 25.6755 24.0412 19.4594Z" fill="#EB001B"/>
<path d="M62.9311 19.4594C62.9311 30.216 54.235 38.9188 43.4861 38.9188C38.9489 38.9188 34.79 37.3513 31.4951 34.7565C36.0323 31.1891 38.895 25.6755 38.895 19.4594C38.895 13.2433 35.9781 7.72969 31.4951 4.16205C34.7897 1.56751 38.9489 0 43.4861 0C54.235 0 62.9313 8.75672 62.9313 19.4594H62.9311Z" fill="#F79E1B"/>
</g>
<defs>
<clipPath id="clip0_418:972">
<rect width="63" height="49" fill="white"/>
</clipPath>
</defs>
</svg>
