<svg width="31" height="31" viewBox="0 0 31 31" fill="none" xmlns="http://www.w3.org/2000/svg">
<path d="M16.3656 26.7892L15.5002 27.5771L13.6272 25.8721C6.97516 19.84 2.5835 15.8488 2.5835 10.9792C2.5835 6.98792 5.70933 3.875 9.68766 3.875C11.9352 3.875 14.0922 4.92125 15.5002 6.56167C16.9081 4.92125 19.0652 3.875 21.3127 3.875C25.291 3.875 28.4168 6.98792 28.4168 10.9792C28.4168 12.8263 27.771 14.5442 26.6343 16.2879C25.8335 15.9004 24.9422 15.6421 24.0122 15.5517C25.1877 13.95 25.8335 12.4646 25.8335 10.9792C25.8335 8.39583 23.896 6.45833 21.3127 6.45833C19.3235 6.45833 17.386 7.75 16.7014 9.50667H14.2989C13.6143 7.75 11.6768 6.45833 9.68766 6.45833C7.10433 6.45833 5.16683 8.39583 5.16683 10.9792C5.16683 14.7121 9.22266 18.3933 15.3581 23.9604L15.5002 24.0896L15.5518 24.0379C15.6552 25.0196 15.9393 25.9496 16.3656 26.7892ZM21.9585 18.0833V21.9583H18.0835V24.5417H21.9585V28.4167H24.5418V24.5417H28.4168V21.9583H24.5418V18.0833H21.9585Z" fill="black"/>
</svg>
