<svg width="57" height="57" viewBox="0 0 57 57" fill="none" xmlns="http://www.w3.org/2000/svg">
<path fill-rule="evenodd" clip-rule="evenodd" d="M30.1932 43.0847C25.3583 43.0847 20.4462 40.0352 17.5794 35.9989C3.82568 35.9989 3.40991 56.8751 3.40991 56.8751H56.9731C56.9731 56.8751 58.0528 35.9062 42.5857 35.9062C39.7223 39.9924 35.0281 43.0847 30.1932 43.0847Z" fill="#512B58"/>
<path fill-rule="evenodd" clip-rule="evenodd" d="M41.714 18.0582C41.714 24.0646 36.5538 35.5501 30.1832 35.5501C23.8227 35.5501 18.6592 24.061 18.6592 18.0582C18.6592 12.0554 23.8194 7.18188 30.1832 7.18188C36.5538 7.18545 41.714 12.0589 41.714 18.0582Z" fill="#512B58"/>
<path fill-rule="evenodd" clip-rule="evenodd" d="M46.8573 12.8749C46.8573 11.7491 45.382 10.8407 43.5513 10.8336V8.51437C43.5513 8.16881 43.6754 0.0783691 30.2234 0.0783691C16.7781 0.0783691 16.9022 8.16881 16.9022 8.51437V10.9155C16.8686 10.9155 16.8418 10.9048 16.8116 10.9048C14.991 10.9048 13.5258 11.799 13.5258 12.9069V22.7181C13.5258 23.8189 14.9943 24.7166 16.8116 24.7166C18.6289 24.7166 20.1042 23.8189 20.1042 22.7181V12.9069C20.1042 12.7537 20.0137 12.6148 19.9601 12.4723V9.79687C19.9601 9.55106 18.9944 3.44493 30.2234 3.44493C41.4558 3.44493 40.2889 9.55106 40.2889 9.79687V12.6148C40.2688 12.7039 40.2051 12.7822 40.2051 12.8749V22.9104C40.2051 24.0397 41.6905 24.9553 43.5312 24.9553C43.5715 24.9553 43.6016 24.9411 43.6419 24.9411V28.6069H40.3426V32.0625H46.8909L46.8573 12.8749Z" fill="#512B58"/>
</svg>
