<svg width="36" height="37" viewBox="0 0 36 37" fill="none" xmlns="http://www.w3.org/2000/svg">
<path d="M11.3085 34.2725C24.894 34.2725 32.3257 23.1598 32.3257 13.5397C32.3257 13.2288 32.3257 12.9134 32.3122 12.6024C33.7591 11.5684 35.0079 10.2882 36 8.8219C34.6485 9.41019 33.2162 9.79791 31.7498 9.97249C33.2944 9.06099 34.4514 7.62682 35.0055 5.93656C33.5542 6.78533 31.9658 7.38117 30.3097 7.69797C29.1964 6.52745 27.7232 5.75201 26.1182 5.49178C24.5132 5.23154 22.8661 5.50103 21.432 6.25849C19.9979 7.01596 18.8568 8.21913 18.1855 9.68164C17.5142 11.1442 17.3502 12.7844 17.7188 14.3483C14.7819 14.2029 11.9088 13.4497 9.28585 12.1376C6.66286 10.8255 4.34854 8.9837 2.493 6.73175C1.55102 8.33787 1.26354 10.2377 1.68895 12.0455C2.11437 13.8532 3.22077 15.4334 4.7835 16.4651C3.61246 16.4258 2.46717 16.1154 1.44 15.5588V15.6588C1.44202 17.3413 2.03244 18.9715 3.11147 20.2739C4.19049 21.5763 5.69193 22.4709 7.362 22.8066C6.72809 22.979 6.07327 23.065 5.41575 23.0621C4.95221 23.0634 4.48961 23.021 4.03425 22.9354C4.50627 24.3838 5.42536 25.6501 6.66281 26.5571C7.90025 27.464 9.39405 27.9661 10.935 27.9931C8.31725 30.0229 5.08365 31.1237 1.755 31.1184C1.16847 31.1208 0.582352 31.0874 0 31.0184C3.37841 33.1447 7.30192 34.2737 11.3085 34.2725Z" fill="white"/>
</svg>
